<?xml version="1.0" encoding="UTF-8" standalone="no"?>
<svg width="3584px" height="45px" viewBox="0 0 3584 45" version="1.1" xmlns="http://www.w3.org/2000/svg" xmlns:xlink="http://www.w3.org/1999/xlink" xmlns:sketch="http://www.bohemiancoding.com/sketch/ns">
    <!-- Generator: Sketch 3.2 (9961) - http://www.bohemiancoding.com/sketch -->
    <title>Artboard 1</title>
    <desc>Created with Sketch.</desc>
    <defs></defs>
    <g id="Page-1" stroke="none" stroke-width="1" fill="none" fill-rule="evenodd" sketch:type="MSPage">
        <g id="liked-animation" sketch:type="MSLayerGroup" transform="translate(23.000000, 1.000000)">
            <g id="Calque_2" sketch:type="MSShapeGroup">
                <path d="M16.3,18.7 C16.3,23.2 10.4,27.2 9.1,28.1 C7.7,27.2 1.9,23.2 1.9,18.7 C1.9,16.1 3.6,14.9 5.1,14.9 C6.5,14.9 8.2,15.9 8.6,18.2 C8.6,18.4 8.8,18.6 9.1,18.6 C9.3,18.6 9.5,18.4 9.6,18.2 C10,15.9 11.7,14.9 13.1,14.9 C14.7,14.9 16.3,16.1 16.3,18.7 L16.3,18.7 Z M13.1,14 C11.8,14 10,14.7 9.1,16.6 C8.2,14.7 6.4,14 5.1,14 C3.1,14 0.9,15.5 0.9,18.7 C0.9,21.1 2.2,23.6 4.9,26.1 C6.8,27.9 8.7,29.1 8.8,29.1 C8.9,29.1 8.9,29.2 9,29.2 C9.1,29.2 9.2,29.2 9.2,29.1 C9.3,29.1 11.2,27.9 13.1,26.1 C15.7,23.6 17.1,21.1 17.1,18.7 C17.3,15.5 15.1,14 13.1,14 L13.1,14 Z" id="coeur" stroke="#9A9A9B" fill="#C2C5CF"></path>
                <g id="Group" transform="translate(130.000000, 14.000000)" fill="#E768A4">
                    <circle id="Oval" cx="7" cy="7.5" r="7"></circle>
                </g>
                <g id="Group" transform="translate(189.000000, 9.000000)">
                    <circle id="Oval" opacity="0.8" fill="#E768A4" cx="12.2" cy="12.5" r="12"></circle>
                    <circle id="Oval" fill="#CE2D4E" cx="12" cy="17.6" r="1"></circle>
                    <circle id="Oval" fill="#CE2D4E" cx="12" cy="7.4" r="1"></circle>
                    <circle id="Oval" fill="#CE2D4E" cx="16.4" cy="15" r="1"></circle>
                    <circle id="Oval" fill="#CE2D4E" cx="7.6" cy="10" r="1"></circle>
                    <circle id="Oval" fill="#CE2D4E" cx="16.4" cy="10" r="1"></circle>
                    <circle id="Oval" fill="#CE2D4E" cx="7.6" cy="15" r="1"></circle>
                </g>
                <g id="Group" transform="translate(250.000000, 7.000000)">
                    <circle id="Oval" fill="#E768A4" cx="14.9" cy="14.5" r="14"></circle>
                    <g transform="translate(8.000000, 7.000000)" id="Shape" fill="#CE2D4E">
                        <path d="M6.9,10.9 C6.3,10.9 5.9,11.3 5.9,11.9 L5.9,13.3 C5.9,13.9 6.3,14.3 6.9,14.3 C7.5,14.3 7.9,13.9 7.9,13.3 L7.9,11.9 C7.9,11.3 7.5,10.9 6.9,10.9 L6.9,10.9 Z"></path>
                        <path d="M6.9,0.7 C6.3,0.7 5.9,1.1 5.9,1.7 L5.9,3.1 C5.9,3.7 6.3,4.1 6.9,4.1 C7.5,4.1 7.9,3.7 7.9,3.1 L7.9,1.7 C7.9,1.1 7.5,0.7 6.9,0.7 L6.9,0.7 Z"></path>
                        <path d="M12.4,9.5 L11.2,8.8 C10.7,8.5 10.1,8.7 9.8,9.2 C9.5,9.7 9.7,10.3 10.2,10.6 L11.4,11.3 C11.9,11.6 12.5,11.4 12.8,10.9 C13.1,10.4 12.9,9.7 12.4,9.5 L12.4,9.5 Z"></path>
                        <path d="M3.6,4.4 L2.4,3.7 C1.9,3.4 1.3,3.6 1,4.1 C0.7,4.6 0.9,5.2 1.4,5.5 L2.6,6.2 C3.1,6.5 3.7,6.3 4,5.8 C4.3,5.3 4.1,4.7 3.6,4.4 L3.6,4.4 Z"></path>
                        <path d="M11.3,6.1 L12.5,5.4 C13,5.1 13.1,4.5 12.9,4 C12.6,3.5 12,3.4 11.5,3.6 L10.3,4.3 C9.8,4.6 9.7,5.2 9.9,5.7 C10.2,6.2 10.8,6.4 11.3,6.1 L11.3,6.1 Z"></path>
                        <path d="M2.6,8.8 L1.4,9.5 C0.9,9.8 0.8,10.4 1,10.9 C1.3,11.4 1.9,11.5 2.4,11.3 L3.6,10.6 C4.1,10.3 4.2,9.7 4,9.2 C3.7,8.7 3.1,8.5 2.6,8.8 L2.6,8.8 Z"></path>
                    </g>
                </g>
                <g id="Group" transform="translate(313.000000, 5.000000)">
                    <circle id="Oval" fill="#E768A4" cx="16.1" cy="16.5" r="16"></circle>
                    <g transform="translate(8.000000, 7.000000)" id="Shape" fill="#CE2D4E">
                        <path d="M8.1,13.1 C7.5,13.1 7.1,13.8 7.1,14.6 L7.1,16.6 C7.1,17.4 7.5,18.1 8.1,18.1 C8.7,18.1 9.1,17.4 9.1,16.6 L9.1,14.6 C9.1,13.8 8.6,13.1 8.1,13.1 L8.1,13.1 Z"></path>
                        <path d="M8.1,0.9 C7.5,0.9 7.1,1.6 7.1,2.4 L7.1,4.4 C7.1,5.2 7.5,5.9 8.1,5.9 C8.7,5.9 9.1,5.2 9.1,4.4 L9.1,2.4 C9.1,1.5 8.6,0.9 8.1,0.9 L8.1,0.9 Z"></path>
                        <path d="M14.8,12.2 L13.1,11.2 C12.4,10.8 11.6,10.8 11.3,11.3 C11,11.8 11.4,12.5 12.1,12.9 L13.8,13.9 C14.5,14.3 15.3,14.3 15.6,13.8 C15.8,13.3 15.5,12.6 14.8,12.2 L14.8,12.2 Z"></path>
                        <path d="M1.4,6.8 L3.1,7.8 C3.8,8.2 4.6,8.2 4.9,7.7 C5.2,7.2 4.8,6.5 4.1,6.1 L2.4,5.1 C1.7,4.7 0.9,4.7 0.6,5.2 C0.3,5.7 0.7,6.4 1.4,6.8 L1.4,6.8 Z"></path>
                        <path d="M13,7.8 L14.7,6.8 C15.4,6.4 15.8,5.7 15.5,5.2 C15.2,4.7 14.4,4.7 13.7,5.1 L12,6.1 C11.3,6.5 10.9,7.2 11.2,7.7 C11.5,8.2 12.3,8.2 13,7.8 L13,7.8 Z"></path>
                        <path d="M3.1,11.2 L1.4,12.2 C0.7,12.6 0.3,13.3 0.6,13.8 C0.9,14.3 1.7,14.3 2.4,13.9 L4.1,12.9 C4.8,12.5 5.2,11.8 4.9,11.3 C4.7,10.8 3.9,10.8 3.1,11.2 L3.1,11.2 Z"></path>
                    </g>
                </g>
                <g id="Group" transform="translate(375.000000, 4.000000)">
                    <circle id="Oval" fill="#E768A4" cx="18.1" cy="17.5" r="17.5"></circle>
                    <g transform="translate(8.000000, 6.000000)" id="Shape" fill="#CE2D4E">
                        <path d="M10.1,15.1 C9.5,15.1 9.1,16 9.1,17.2 L9.1,20 C9.1,21.2 9.5,22.1 10.1,22.1 C10.7,22.1 11.1,21.2 11.1,20 L11.1,17.2 C11.1,16.1 10.6,15.1 10.1,15.1 L10.1,15.1 Z"></path>
                        <path d="M10.1,0.9 C9.5,0.9 9.1,1.8 9.1,3 L9.1,5.8 C9.1,7 9.5,7.9 10.1,7.9 C10.7,7.9 11.1,7 11.1,5.8 L11.1,3 C11.1,1.8 10.6,0.9 10.1,0.9 L10.1,0.9 Z"></path>
                        <path d="M18,14.9 L15.6,13.5 C14.6,12.9 13.6,12.8 13.3,13.3 C13,13.8 13.6,14.6 14.6,15.2 L17,16.6 C18,17.2 19,17.3 19.3,16.8 C19.6,16.3 19,15.5 18,14.9 L18,14.9 Z"></path>
                        <path d="M5.6,7.8 L3.2,6.4 C2.2,5.8 1.2,5.7 0.9,6.2 C0.6,6.7 1.2,7.5 2.2,8.1 L4.6,9.5 C5.6,10.1 6.6,10.2 6.9,9.7 C7.2,9.2 6.6,8.3 5.6,7.8 L5.6,7.8 Z"></path>
                        <path d="M15.5,9.5 L17.9,8.1 C18.9,7.5 19.5,6.7 19.2,6.2 C18.9,5.7 17.9,5.8 16.9,6.4 L14.5,7.8 C13.5,8.4 12.9,9.2 13.2,9.7 C13.5,10.2 14.5,10.1 15.5,9.5 L15.5,9.5 Z"></path>
                        <path d="M4.6,13.5 L2.2,14.9 C1.2,15.5 0.6,16.3 0.9,16.8 C1.2,17.3 2.2,17.2 3.2,16.6 L5.6,15.2 C6.6,14.6 7.2,13.8 6.9,13.3 C6.6,12.8 5.6,12.9 4.6,13.5 L4.6,13.5 Z"></path>
                    </g>
                </g>
                <g id="Group" transform="translate(438.000000, 3.000000)">
                    <path d="M28.2,2.5 C19.4,-2.6 8,0.4 2.9,9.3 C-2.2,18.1 0.8,29.5 9.7,34.6 C18.5,39.7 29.9,36.7 35,27.8 C40.1,18.9 37,7.6 28.2,2.5 L28.2,2.5 Z M18.9,19.5 C18.3,19.5 17.9,19.1 17.9,18.5 C17.9,17.9 18.3,17.5 18.9,17.5 C19.5,17.5 19.9,17.9 19.9,18.5 C19.9,19.1 19.5,19.5 18.9,19.5 L18.9,19.5 Z" id="Shape" fill="#E768A4"></path>
                    <g transform="translate(9.000000, 7.000000)" id="Shape" fill="#CE2D4E">
                        <path d="M13.1,13.3 C12.8,13.8 13.4,14.6 14.4,15.2 L16.8,16.6 C17.8,17.2 18.8,17.3 19.1,16.8 C19.4,16.3 18.8,15.5 17.8,14.9 L15.4,13.5 C14.4,12.9 13.3,12.8 13.1,13.3 L13.1,13.3 Z"></path>
                        <path d="M0.7,6.2 C0.4,6.7 1,7.5 2,8.1 L4.4,9.5 C5.4,10.1 6.4,10.2 6.7,9.7 C7,9.2 6.4,8.4 5.4,7.8 L3,6.4 C2,5.8 1,5.7 0.7,6.2 L0.7,6.2 Z"></path>
                        <path d="M16.8,6.4 L14.4,7.8 C13.4,8.4 12.8,9.2 13.1,9.7 C13.4,10.2 14.4,10.1 15.4,9.5 L17.8,8.1 C18.8,7.5 19.4,6.7 19.1,6.2 C18.8,5.7 17.8,5.8 16.8,6.4 L16.8,6.4 Z"></path>
                        <path d="M4.5,13.5 L2.1,14.9 C1.1,15.5 0.5,16.3 0.8,16.8 C1.1,17.3 2.1,17.2 3.1,16.6 L5.5,15.2 C6.5,14.6 7.1,13.8 6.8,13.3 C6.5,12.8 5.5,12.9 4.5,13.5 L4.5,13.5 Z"></path>
                        <path d="M10.9,5.8 L10.9,3 C10.9,1.8 10.5,0.9 9.9,0.9 C9.3,0.9 8.9,1.8 8.9,3 L8.9,5.8 C8.9,7 9.3,7.9 9.9,7.9 C10.5,7.9 10.9,6.9 10.9,5.8 L10.9,5.8 Z"></path>
                        <path d="M8.9,17.2 L8.9,20 C8.9,21.2 9.3,22.1 9.9,22.1 C10.5,22.1 10.9,21.2 10.9,20 L10.9,17.2 C10.9,16 10.5,15.1 9.9,15.1 C9.4,15.1 8.9,16.1 8.9,17.2 L8.9,17.2 Z"></path>
                    </g>
                </g>
                <g id="Group" transform="translate(502.000000, 3.000000)">
                    <path d="M28.2,2.5 C19.4,-2.6 8,0.4 2.9,9.3 C-2.2,18.1 0.8,29.5 9.7,34.6 C18.5,39.7 29.9,36.7 35,27.8 C40.1,18.9 37.1,7.6 28.2,2.5 L28.2,2.5 Z M19,22.5 C16.8,22.5 15,20.7 15,18.5 C15,16.3 16.8,14.5 19,14.5 C21.2,14.5 23,16.3 23,18.5 C23,20.7 21.2,22.5 19,22.5 L19,22.5 Z" id="Shape" fill="#E768A4"></path>
                    <g transform="translate(9.000000, 7.000000)" id="Shape" fill="#CE2D4E">
                        <path d="M13.2,13.3 C12.9,13.8 13.5,14.6 14.5,15.2 L16.9,16.6 C17.9,17.2 18.9,17.3 19.2,16.8 C19.5,16.3 18.9,15.5 17.9,14.9 L15.5,13.5 C14.5,12.9 13.4,12.8 13.2,13.3 L13.2,13.3 Z"></path>
                        <path d="M0.8,6.2 C0.5,6.7 1.1,7.5 2.1,8.1 L4.5,9.5 C5.5,10.1 6.5,10.2 6.8,9.7 C7.1,9.2 6.5,8.4 5.5,7.8 L3.1,6.4 C2.1,5.8 1.1,5.7 0.8,6.2 L0.8,6.2 Z"></path>
                        <path d="M16.9,6.4 L14.5,7.8 C13.5,8.4 12.9,9.2 13.2,9.7 C13.5,10.2 14.5,10.1 15.5,9.5 L17.9,8.1 C18.9,7.5 19.5,6.7 19.2,6.2 C18.9,5.7 17.9,5.8 16.9,6.4 L16.9,6.4 Z"></path>
                        <path d="M4.5,13.5 L2.1,14.9 C1.1,15.5 0.5,16.3 0.8,16.8 C1.1,17.3 2.1,17.2 3.1,16.6 L5.5,15.2 C6.5,14.6 7.1,13.8 6.8,13.3 C6.6,12.8 5.5,12.9 4.5,13.5 L4.5,13.5 Z"></path>
                        <path d="M11,5.8 L11,3 C11,1.8 10.6,0.9 10,0.9 C9.4,0.9 9,1.8 9,3 L9,5.8 C9,7 9.4,7.9 10,7.9 C10.6,7.9 11,6.9 11,5.8 L11,5.8 Z"></path>
                        <path d="M9,17.2 L9,20 C9,21.2 9.4,22.1 10,22.1 C10.6,22.1 11,21.2 11,20 L11,17.2 C11,16 10.6,15.1 10,15.1 C9.4,15.1 9,16.1 9,17.2 L9,17.2 Z"></path>
                    </g>
                </g>
                <g id="Group" transform="translate(565.000000, 1.000000)">
                    <path d="M29.7,3.6 C20.4,-1.8 8.5,1.4 3.1,10.7 C-2.3,20 0.9,31.9 10.2,37.3 C19.5,42.7 31.4,39.5 36.8,30.2 C42.3,20.9 39.1,9 29.7,3.6 L29.7,3.6 Z M20,30.5 C14.5,30.5 10,26 10,20.5 C10,15 14.5,10.5 20,10.5 C25.5,10.5 30,15 30,20.5 C30,26 25.5,30.5 20,30.5 L20,30.5 Z" id="Shape" fill="#E768A4"></path>
                    <g transform="translate(10.000000, 9.000000)" id="Shape" fill="#CE2D4E">
                        <path d="M13.2,13.3 C12.9,13.8 13.5,14.6 14.5,15.2 L16.9,16.6 C17.9,17.2 18.9,17.3 19.2,16.8 C19.5,16.3 18.9,15.5 17.9,14.9 L15.5,13.5 C14.5,12.9 13.4,12.8 13.2,13.3 L13.2,13.3 Z"></path>
                        <path d="M0.8,6.2 C0.5,6.7 1.1,7.5 2.1,8.1 L4.5,9.5 C5.5,10.1 6.5,10.2 6.8,9.7 C7.1,9.2 6.5,8.4 5.5,7.8 L3.1,6.4 C2.1,5.8 1.1,5.7 0.8,6.2 L0.8,6.2 Z"></path>
                        <path d="M16.9,6.4 L14.5,7.8 C13.5,8.4 12.9,9.2 13.2,9.7 C13.5,10.2 14.5,10.1 15.5,9.5 L17.9,8.1 C18.9,7.5 19.5,6.7 19.2,6.2 C18.9,5.7 17.9,5.8 16.9,6.4 L16.9,6.4 Z"></path>
                        <path d="M4.5,13.5 L2.1,14.9 C1.1,15.5 0.5,16.3 0.8,16.8 C1.1,17.3 2.1,17.2 3.1,16.6 L5.5,15.2 C6.5,14.6 7.1,13.8 6.8,13.3 C6.6,12.8 5.5,12.9 4.5,13.5 L4.5,13.5 Z"></path>
                        <path d="M11,5.8 L11,3 C11,1.8 10.6,0.9 10,0.9 C9.4,0.9 9,1.8 9,3 L9,5.8 C9,7 9.4,7.9 10,7.9 C10.6,7.9 11,6.9 11,5.8 L11,5.8 Z"></path>
                        <path d="M9,17.2 L9,20 C9,21.2 9.4,22.1 10,22.1 C10.6,22.1 11,21.2 11,20 L11,17.2 C11,16 10.6,15.1 10,15.1 C9.4,15.1 9,16.1 9,17.2 L9,17.2 Z"></path>
                    </g>
                </g>
                <g id="Group" transform="translate(628.000000, 0.000000)">
                    <path d="M31.2,3.7 C21.4,-2 8.9,1.4 3.2,11.2 C-2.5,21 0.9,33.5 10.7,39.2 C20.5,44.9 33,41.5 38.7,31.7 C44.4,21.9 41.1,9.4 31.2,3.7 L31.2,3.7 Z M21,35 C13.5,35 7.5,29 7.5,21.5 C7.5,14 13.5,8 21,8 C28.5,8 34.5,14 34.5,21.5 C34.5,29 28.5,35 21,35 L21,35 Z" id="Shape" fill="#E768A4"></path>
                    <g transform="translate(11.000000, 10.000000)" id="Shape" fill="#CE2D4E">
                        <path d="M13.2,13.3 C12.9,13.8 13.5,14.6 14.5,15.2 L16.9,16.6 C17.9,17.2 18.9,17.3 19.2,16.8 C19.5,16.3 18.9,15.5 17.9,14.9 L15.5,13.5 C14.5,12.9 13.4,12.8 13.2,13.3 L13.2,13.3 Z"></path>
                        <path d="M0.8,6.2 C0.5,6.7 1.1,7.5 2.1,8.1 L4.5,9.5 C5.5,10.1 6.5,10.2 6.8,9.7 C7.1,9.2 6.5,8.4 5.5,7.8 L3.1,6.4 C2.1,5.8 1.1,5.7 0.8,6.2 L0.8,6.2 Z"></path>
                        <path d="M16.9,6.4 L14.5,7.8 C13.5,8.4 12.9,9.2 13.2,9.7 C13.5,10.2 14.5,10.1 15.5,9.5 L17.9,8.1 C18.9,7.5 19.5,6.7 19.2,6.2 C18.9,5.7 17.9,5.8 16.9,6.4 L16.9,6.4 Z"></path>
                        <path d="M4.5,13.5 L2.1,14.9 C1.1,15.5 0.5,16.3 0.8,16.8 C1.1,17.3 2.1,17.2 3.1,16.6 L5.5,15.2 C6.5,14.6 7.1,13.8 6.8,13.3 C6.6,12.8 5.5,12.9 4.5,13.5 L4.5,13.5 Z"></path>
                        <path d="M11,5.8 L11,3 C11,1.8 10.6,0.9 10,0.9 C9.4,0.9 9,1.8 9,3 L9,5.8 C9,7 9.4,7.9 10,7.9 C10.6,7.9 11,6.9 11,5.8 L11,5.8 Z"></path>
                        <path d="M9,17.2 L9,20 C9,21.2 9.4,22.1 10,22.1 C10.6,22.1 11,21.2 11,20 L11,17.2 C11,16 10.6,15.1 10,15.1 C9.4,15.1 9,16.1 9,17.2 L9,17.2 Z"></path>
                    </g>
                </g>
                <g id="Group" transform="translate(692.000000, 0.000000)">
                    <path d="M31.2,3.7 C21.4,-2 8.9,1.4 3.2,11.2 C-2.5,21 0.9,33.5 10.7,39.2 C20.5,44.9 33,41.5 38.7,31.7 C44.4,21.9 41.1,9.4 31.2,3.7 L31.2,3.7 Z M21,37.5 C12.2,37.5 5,30.3 5,21.5 C5,12.7 12.2,5.5 21,5.5 C29.8,5.5 37,12.7 37,21.5 C37,30.3 29.8,37.5 21,37.5 L21,37.5 Z" id="Shape" fill="#E768A4"></path>
                    <g transform="translate(11.000000, 10.000000)" id="Shape" fill="#CE2D4E">
                        <path d="M13.2,13.3 C12.9,13.8 13.5,14.6 14.5,15.2 L16.9,16.6 C17.9,17.2 18.9,17.3 19.2,16.8 C19.5,16.3 18.9,15.5 17.9,14.9 L15.5,13.5 C14.5,12.9 13.4,12.8 13.2,13.3 L13.2,13.3 Z"></path>
                        <path d="M0.8,6.2 C0.5,6.7 1.1,7.5 2.1,8.1 L4.5,9.5 C5.5,10.1 6.5,10.2 6.8,9.7 C7.1,9.2 6.5,8.4 5.5,7.8 L3.1,6.4 C2.1,5.8 1.1,5.7 0.8,6.2 L0.8,6.2 Z"></path>
                        <path d="M16.9,6.4 L14.5,7.8 C13.5,8.4 12.9,9.2 13.2,9.7 C13.5,10.2 14.5,10.1 15.5,9.5 L17.9,8.1 C18.9,7.5 19.5,6.7 19.2,6.2 C18.9,5.7 17.9,5.8 16.9,6.4 L16.9,6.4 Z"></path>
                        <path d="M4.5,13.5 L2.1,14.9 C1.1,15.5 0.5,16.3 0.8,16.8 C1.1,17.3 2.1,17.2 3.1,16.6 L5.5,15.2 C6.5,14.6 7.1,13.8 6.8,13.3 C6.6,12.8 5.5,12.9 4.5,13.5 L4.5,13.5 Z"></path>
                        <path d="M11,5.8 L11,3 C11,1.8 10.6,0.9 10,0.9 C9.4,0.9 9,1.8 9,3 L9,5.8 C9,7 9.4,7.9 10,7.9 C10.6,7.9 11,6.9 11,5.8 L11,5.8 Z"></path>
                        <path d="M9,17.2 L9,20 C9,21.2 9.4,22.1 10,22.1 C10.6,22.1 11,21.2 11,20 L11,17.2 C11,16 10.6,15.1 10,15.1 C9.4,15.1 9,16.1 9,17.2 L9,17.2 Z"></path>
                    </g>
                </g>
                <g id="Group" transform="translate(756.000000, 0.000000)">
                    <path d="M31.2,3.7 C21.4,-2 8.9,1.4 3.2,11.2 C-2.5,21 0.9,33.5 10.7,39.2 C20.5,44.9 33,41.5 38.7,31.7 C44.4,21.9 41.1,9.4 31.2,3.7 L31.2,3.7 Z M21,38.5 C11.6,38.5 4,30.9 4,21.5 C4,12.1 11.6,4.5 21,4.5 C30.4,4.5 38,12.1 38,21.5 C38,30.9 30.4,38.5 21,38.5 L21,38.5 Z" id="Shape" fill="#E768A4"></path>
                    <g transform="translate(20.000000, 8.000000)" id="Shape" fill="#CE2D4E">
                        <path d="M2,5.7 L2,2.9 C2,1.7 1.6,0.8 1,0.8 C0.4,0.8 0,1.7 0,2.9 L0,5.7 C0,6.9 0.4,7.8 1,7.8 C1.6,7.8 2,6.9 2,5.7 L2,5.7 Z"></path>
                        <path d="M0,21.2 L0,24 C0,25.2 0.4,26.1 1,26.1 C1.6,26.1 2,25.2 2,24 L2,21.2 C2,20 1.6,19.1 1,19.1 C0.4,19.1 0,20.1 0,21.2 L0,21.2 Z"></path>
                    </g>
                    <g transform="translate(10.000000, 14.000000)" id="Shape" fill="#CE2D4E">
                        <path d="M4.8,2.7 L2.4,1.3 C1.4,0.7 0.4,0.6 0.1,1.1 C-0.2,1.6 0.4,2.4 1.4,3 L3.8,4.4 C4.8,5 5.8,5.1 6.1,4.6 C6.4,4.2 5.8,3.3 4.8,2.7 L4.8,2.7 Z"></path>
                        <path d="M17.2,12.2 L19.6,13.6 C20.6,14.2 21.6,14.3 21.9,13.8 C22.2,13.3 21.6,12.5 20.6,11.9 L18.2,10.5 C17.2,9.9 16.2,9.8 15.9,10.3 C15.6,10.8 16.2,11.6 17.2,12.2 L17.2,12.2 Z"></path>
                    </g>
                    <g transform="translate(10.000000, 14.000000)" id="Shape" fill="#CE2D4E">
                        <path d="M3.8,10.5 L1.4,11.9 C0.4,12.5 -0.2,13.3 0.1,13.8 C0.4,14.3 1.4,14.2 2.4,13.6 L4.8,12.2 C5.8,11.6 6.4,10.8 6.1,10.3 C5.8,9.8 4.8,9.9 3.8,10.5 L3.8,10.5 Z"></path>
                        <path d="M18.2,4.5 L20.6,3.1 C21.6,2.5 22.2,1.7 21.9,1.2 C21.6,0.7 20.6,0.8 19.6,1.4 L17.2,2.8 C16.2,3.4 15.6,4.2 15.9,4.7 C16.2,5.2 17.2,5.1 18.2,4.5 L18.2,4.5 Z"></path>
                    </g>
                    <path d="M21.7,20.1 C21.5,20.1 21.1,20.2 21,20.6 C20.8,20.2 20.5,20.1 20.3,20.1 C19.9,20.1 19.5,20.4 19.5,21 C19.5,21.4 19.7,21.9 20.2,22.4 C20.6,22.7 20.9,22.9 20.9,23 L20.9,23 C20.9,23 21.3,22.8 21.6,22.4 C22.1,21.9 22.3,21.5 22.3,21 C22.5,20.4 22.1,20.1 21.7,20.1 L21.7,20.1 Z" id="coeur_1_" fill="#E768A4"></path>
                </g>
                <g id="Group" transform="translate(820.000000, 0.000000)">
                    <path d="M31.2,3.7 C21.4,-2 8.9,1.4 3.2,11.2 C-2.5,21 0.9,33.5 10.7,39.2 C20.5,44.9 33,41.5 38.7,31.7 C44.4,21.9 41.1,9.4 31.2,3.7 L31.2,3.7 Z M21,39.5 C11.1,39.5 3,31.4 3,21.5 C3,11.6 11.1,3.5 21,3.5 C30.9,3.5 39,11.6 39,21.5 C39,31.4 30.9,39.5 21,39.5 L21,39.5 Z" id="Shape" fill="#E768A4"></path>
                    <path d="M22.5,18.7 C22,18.7 21.4,19 21,19.7 C20.7,19 20,18.7 19.5,18.7 C18.8,18.7 18,19.2 18,20.4 C18,21.3 18.5,22.2 19.5,23.1 C20.2,23.8 20.9,24.2 20.9,24.2 L21,24.2 L21.1,24.2 C21.1,24.2 21.8,23.8 22.5,23.1 C23.5,22.2 24,21.3 24,20.4 C24,19.2 23.2,18.7 22.5,18.7 L22.5,18.7 Z" id="coeur_2_" fill="#E768A4"></path>
                    <g transform="translate(20.000000, 8.000000)" id="Shape" fill="#CE2D4E">
                        <path d="M1,21.1 C0.4,21.1 0,21.8 0,22.6 L0,24.6 C0,25.4 0.4,26.1 1,26.1 C1.6,26.1 2,25.4 2,24.6 L2,22.6 C2,21.8 1.6,21.1 1,21.1 L1,21.1 Z"></path>
                        <path d="M1,0.9 C0.4,0.9 0,1.6 0,2.4 L0,4.4 C0,5.2 0.4,5.9 1,5.9 C1.6,5.9 2,5.2 2,4.4 L2,2.4 C2,1.5 1.6,0.9 1,0.9 L1,0.9 Z"></path>
                    </g>
                    <g transform="translate(9.000000, 14.000000)" id="Shape" fill="#CE2D4E">
                        <path d="M18.6,11.3 C18.3,11.8 18.7,12.5 19.4,12.9 L21.1,13.9 C21.8,14.3 22.6,14.3 22.9,13.8 C23.2,13.3 22.8,12.6 22.1,12.2 L20.4,11.2 C19.7,10.8 18.9,10.8 18.6,11.3 L18.6,11.3 Z"></path>
                        <path d="M1.1,1.2 C0.8,1.7 1.2,2.4 1.9,2.8 L3.6,3.8 C4.3,4.2 5.1,4.2 5.4,3.7 C5.7,3.2 5.3,2.5 4.6,2.1 L2.9,1.1 C2.1,0.6 1.3,0.7 1.1,1.2 L1.1,1.2 Z"></path>
                    </g>
                    <g transform="translate(9.000000, 14.000000)" id="Shape" fill="#CE2D4E">
                        <path d="M18.6,3.7 C18.9,4.2 19.7,4.2 20.4,3.8 L22.1,2.8 C22.8,2.4 23.2,1.7 22.9,1.2 C22.6,0.7 21.8,0.7 21.1,1.1 L19.4,2.1 C18.7,2.5 18.3,3.2 18.6,3.7 L18.6,3.7 Z"></path>
                        <path d="M1.1,13.8 C1.4,14.3 2.2,14.3 2.9,13.9 L4.6,12.9 C5.3,12.5 5.7,11.8 5.4,11.3 C5.1,10.8 4.3,10.8 3.6,11.2 L1.9,12.2 C1.1,12.6 0.8,13.3 1.1,13.8 L1.1,13.8 Z"></path>
                    </g>
                </g>
                <g id="Group" transform="translate(884.000000, 0.000000)">
                    <path d="M31.2,3.7 C21.4,-2 8.9,1.4 3.2,11.2 C-2.5,21 0.9,33.5 10.7,39.2 C20.5,44.9 33,41.5 38.7,31.7 C44.4,21.9 41.1,9.4 31.2,3.7 L31.2,3.7 Z M21,40.5 C10.5,40.5 2,32 2,21.5 C2,11 10.5,2.5 21,2.5 C31.5,2.5 40,11 40,21.5 C40,32 31.5,40.5 21,40.5 L21,40.5 Z" id="Shape" fill="#E768A4"></path>
                    <path d="M23.4,16.8 C22.6,16.8 21.5,17.2 21,18.4 C20.4,17.2 19.4,16.8 18.6,16.8 C17.4,16.8 16,17.7 16,19.7 C16,21.2 16.8,22.7 18.4,24.2 C19.6,25.3 20.8,26 20.8,26.1 L20.9,26.1 L21,26.1 C21,26.1 22.2,25.4 23.4,24.2 C25,22.7 25.8,21.1 25.8,19.7 C26,17.7 24.7,16.8 23.4,16.8 L23.4,16.8 Z" id="coeur_3_" fill="#E768A4"></path>
                    <g transform="translate(20.000000, 8.000000)" id="Shape" fill="#CE2D4E">
                        <path d="M1,21.1 C0.4,21.1 0,21.8 0,22.6 L0,24.6 C0,25.4 0.4,26.1 1,26.1 C1.6,26.1 2,25.4 2,24.6 L2,22.6 C2,21.8 1.6,21.1 1,21.1 L1,21.1 Z"></path>
                        <path d="M1,0.9 C0.4,0.9 0,1.6 0,2.4 L0,4.4 C0,5.2 0.4,5.9 1,5.9 C1.6,5.9 2,5.2 2,4.4 L2,2.4 C2,1.5 1.6,0.9 1,0.9 L1,0.9 Z"></path>
                    </g>
                    <g transform="translate(9.000000, 14.000000)" id="Shape" fill="#CE2D4E">
                        <path d="M18.6,11.3 C18.3,11.8 18.7,12.5 19.4,12.9 L21.1,13.9 C21.8,14.3 22.6,14.3 22.9,13.8 C23.2,13.3 22.8,12.6 22.1,12.2 L20.4,11.2 C19.7,10.8 18.9,10.8 18.6,11.3 L18.6,11.3 Z"></path>
                        <path d="M1.1,1.2 C0.8,1.7 1.2,2.4 1.9,2.8 L3.6,3.8 C4.3,4.2 5.1,4.2 5.4,3.7 C5.7,3.2 5.3,2.5 4.6,2.1 L2.9,1.1 C2.1,0.6 1.3,0.7 1.1,1.2 L1.1,1.2 Z"></path>
                    </g>
                    <g transform="translate(9.000000, 14.000000)" id="Shape" fill="#CE2D4E">
                        <path d="M18.6,3.7 C18.9,4.2 19.7,4.2 20.4,3.8 L22.1,2.8 C22.8,2.4 23.2,1.7 22.9,1.2 C22.6,0.7 21.8,0.7 21.1,1.1 L19.4,2.1 C18.7,2.5 18.3,3.2 18.6,3.7 L18.6,3.7 Z"></path>
                        <path d="M1.1,13.8 C1.4,14.3 2.2,14.3 2.9,13.9 L4.6,12.9 C5.3,12.5 5.7,11.8 5.4,11.3 C5.1,10.8 4.3,10.8 3.6,11.2 L1.9,12.2 C1.1,12.6 0.8,13.3 1.1,13.8 L1.1,13.8 Z"></path>
                    </g>
                </g>
                <g id="Group" transform="translate(948.000000, 0.000000)">
                    <path d="M31.2,3.7 C21.4,-2 8.9,1.4 3.2,11.2 C-2.5,21 0.9,33.5 10.7,39.2 C20.5,44.9 33,41.5 38.7,31.7 C44.4,21.9 41.1,9.4 31.2,3.7 L31.2,3.7 Z M21,41 C10.2,41 1.5,32.3 1.5,21.5 C1.5,10.7 10.2,2 21,2 C31.8,2 40.5,10.7 40.5,21.5 C40.5,32.3 31.8,41 21,41 L21,41 Z" id="Shape" fill="#E768A4"></path>
                    <path d="M23.9,15.9 C23,15.9 21.6,16.4 21,17.8 C20.3,16.4 19,15.9 18.1,15.9 C16.6,15.9 15,17 15,19.4 C15,21.2 16,23 17.9,24.8 C19.3,26.1 20.7,27 20.8,27 L21,27 L21.2,27 C21.3,27 22.7,26.1 24.1,24.8 C26.1,23 27,21.1 27,19.4 C27,17 25.4,15.9 23.9,15.9 L23.9,15.9 Z" id="coeur_4_" fill="#E768A4"></path>
                    <g transform="translate(20.000000, 9.000000)" id="Shape" fill="#CE2D4E">
                        <path d="M1,20.6 C0.4,20.6 0,21.1 0,21.8 L0,23.4 C0,24.1 0.4,24.6 1,24.6 C1.6,24.6 2,24.1 2,23.4 L2,21.8 C2,21.2 1.6,20.6 1,20.6 L1,20.6 Z"></path>
                        <path d="M1,0.3 C0.4,0.3 0,0.8 0,1.5 L0,3.1 C0,3.8 0.4,4.3 1,4.3 C1.6,4.3 2,3.8 2,3.1 L2,1.5 C2,0.9 1.6,0.3 1,0.3 L1,0.3 Z"></path>
                    </g>
                    <g transform="translate(10.000000, 14.000000)" id="Shape" fill="#CE2D4E">
                        <path d="M18.1,11.6 C17.8,12.1 18.1,12.7 18.6,13.1 L20,13.9 C20.6,14.2 21.3,14.1 21.5,13.6 C21.8,13.1 21.5,12.5 21,12.1 L19.6,11.3 C19,11 18.3,11.1 18.1,11.6 L18.1,11.6 Z"></path>
                        <path d="M0.5,1.4 C0.2,1.9 0.5,2.5 1,2.9 L2.4,3.7 C3,4 3.7,3.9 3.9,3.4 C4.2,2.9 3.9,2.3 3.4,1.9 L2,1.1 C1.4,0.8 0.8,0.9 0.5,1.4 L0.5,1.4 Z"></path>
                    </g>
                    <g transform="translate(10.000000, 14.000000)" id="Shape" fill="#CE2D4E">
                        <path d="M18.1,3.4 C18.4,3.9 19.1,4 19.6,3.7 L21,2.9 C21.6,2.6 21.8,1.9 21.5,1.4 C21.2,0.9 20.5,0.8 20,1.1 L18.6,1.9 C18,2.3 17.8,2.9 18.1,3.4 L18.1,3.4 Z"></path>
                        <path d="M0.5,13.6 C0.8,14.1 1.5,14.2 2,13.9 L3.4,13.1 C4,12.8 4.2,12.1 3.9,11.6 C3.6,11.1 2.9,11 2.4,11.3 L1,12.1 C0.4,12.4 0.2,13.1 0.5,13.6 L0.5,13.6 Z"></path>
                    </g>
                </g>
                <g id="Group" transform="translate(1012.000000, 0.000000)">
                    <path d="M31.2,3.7 C21.4,-2 8.9,1.4 3.2,11.2 C-2.5,21 0.9,33.5 10.7,39.2 C20.5,44.9 33,41.5 38.7,31.7 C44.4,21.9 41.1,9.4 31.2,3.7 L31.2,3.7 Z M21,41.5 C10,41.5 1,32.5 1,21.5 C1,10.5 10,1.5 21,1.5 C32,1.5 41,10.5 41,21.5 C41,32.5 32,41.5 21,41.5 L21,41.5 Z" id="Shape" fill="#E768A4"></path>
                    <path d="M24.9,14 C23.6,14 21.9,14.7 21,16.6 C20.1,14.7 18.4,14 17.1,14 C15.1,14 13,15.5 13,18.7 C13,21 14.3,23.5 16.9,25.9 C18.8,27.7 20.7,28.8 20.8,28.9 C20.9,28.9 20.9,29 21,29 C21.1,29 21.2,29 21.2,28.9 C21.3,28.9 23.2,27.7 25.1,25.9 C27.7,23.4 29,21 29,18.7 C29,15.5 26.9,14 24.9,14 L24.9,14 Z" id="coeur_5_" fill="#E768A4"></path>
                    <g transform="translate(20.000000, 9.000000)" id="Shape" fill="#CE2D4E">
                        <path d="M1,22.6 C0.4,22.6 0,22.9 0,23.2 L0,24 C0,24.3 0.4,24.6 1,24.6 C1.6,24.6 2,24.3 2,24 L2,23.2 C2,22.9 1.6,22.6 1,22.6 L1,22.6 Z"></path>
                        <path d="M1,0.3 C0.4,0.3 0,0.6 0,0.9 L0,1.7 C0,2 0.4,2.3 1,2.3 C1.6,2.3 2,2 2,1.7 L2,0.9 C2,0.6 1.6,0.3 1,0.3 L1,0.3 Z"></path>
                    </g>
                    <g transform="translate(10.000000, 14.000000)" id="Shape" fill="#CE2D4E">
                        <path d="M19.8,12.6 C19.5,13.1 19.5,13.6 19.8,13.8 L20.5,14.2 C20.8,14.4 21.2,14.1 21.5,13.6 C21.8,13.1 21.8,12.6 21.5,12.4 L20.8,12 C20.5,11.8 20.1,12.1 19.8,12.6 L19.8,12.6 Z"></path>
                        <path d="M0.5,1.4 C0.2,1.9 0.2,2.4 0.5,2.6 L1.2,3 C1.5,3.2 1.9,2.9 2.2,2.4 C2.5,1.9 2.5,1.4 2.2,1.2 L1.5,0.8 C1.2,0.7 0.8,0.9 0.5,1.4 L0.5,1.4 Z"></path>
                    </g>
                    <g transform="translate(10.000000, 14.000000)" id="Shape" fill="#CE2D4E">
                        <path d="M19.8,2.4 C20.1,2.9 20.5,3.1 20.8,3 L21.5,2.6 C21.8,2.4 21.8,1.9 21.5,1.4 C21.2,0.9 20.8,0.7 20.5,0.8 L19.8,1.2 C19.5,1.4 19.5,1.9 19.8,2.4 L19.8,2.4 Z"></path>
                        <path d="M0.5,13.6 C0.8,14.1 1.2,14.3 1.5,14.2 L2.2,13.8 C2.5,13.6 2.5,13.1 2.2,12.6 C1.9,12.1 1.5,11.9 1.2,12 L0.5,12.4 C0.2,12.6 0.2,13.1 0.5,13.6 L0.5,13.6 Z"></path>
                    </g>
                </g>
                <g id="Group" transform="translate(1076.000000, 0.000000)">
                    <path d="M31.2,3.7 C21.4,-2 8.9,1.4 3.2,11.2 C-2.5,21 0.9,33.5 10.7,39.2 C20.5,44.9 33,41.5 38.7,31.7 C44.3,21.9 41,9.4 31.2,3.7 L31.2,3.7 Z M20.9,41.5 C9.9,41.5 0.9,32.5 0.9,21.5 C0.9,10.5 9.9,1.5 20.9,1.5 C31.9,1.5 40.9,10.5 40.9,21.5 C40.9,32.5 32,41.5 20.9,41.5 L20.9,41.5 Z" id="Shape" fill="#E768A4"></path>
                    <path d="M25.5,12.6 C24,12.6 21.9,13.4 20.9,15.7 C19.8,13.4 17.8,12.6 16.3,12.6 C14,12.6 11.4,14.3 11.4,18.1 C11.4,20.9 13,23.8 16.1,26.7 C18.4,28.8 20.6,30.2 20.7,30.2 C20.8,30.2 20.9,30.3 21,30.3 C21.1,30.3 21.2,30.3 21.3,30.2 C21.4,30.1 23.6,28.8 25.9,26.7 C29,23.8 30.6,20.9 30.6,18.1 C30.4,14.4 27.9,12.6 25.5,12.6 L25.5,12.6 Z" id="coeur_6_" fill="#E768A4"></path>
                    <g transform="translate(20.000000, 6.000000)" id="Shape" fill="#CE2D4E">
                        <path d="M0.9,29.1 C0.6,29.1 0.4,29.2 0.4,29.4 L0.4,29.8 C0.4,30 0.6,30.1 0.9,30.1 C1.2,30.1 1.4,30 1.4,29.8 L1.4,29.4 C1.4,29.3 1.2,29.1 0.9,29.1 L0.9,29.1 Z"></path>
                        <path d="M0.9,0.8 C0.6,0.8 0.4,0.9 0.4,1.1 L0.4,1.5 C0.4,1.7 0.6,1.8 0.9,1.8 C1.2,1.8 1.4,1.7 1.4,1.5 L1.4,1.1 C1.4,1 1.2,0.8 0.9,0.8 L0.9,0.8 Z"></path>
                    </g>
                    <g transform="translate(8.000000, 13.000000)" id="Shape" fill="#CE2D4E">
                        <path d="M24.7,15.3 C24.6,15.5 24.6,15.8 24.7,15.9 L25,16.1 C25.1,16.2 25.4,16.1 25.5,15.8 C25.6,15.6 25.6,15.3 25.5,15.2 L25.2,15 C25.1,14.9 24.9,15.1 24.7,15.3 L24.7,15.3 Z"></path>
                        <path d="M0.2,1.2 C0.1,1.4 0.1,1.7 0.2,1.8 L0.5,2 C0.6,2.1 0.9,2 1,1.7 C1.1,1.5 1.1,1.2 1,1.1 L0.7,0.9 C0.6,0.8 0.4,0.9 0.2,1.2 L0.2,1.2 Z"></path>
                    </g>
                    <g transform="translate(8.000000, 13.000000)" id="Shape" fill="#CE2D4E">
                        <path d="M24.7,1.7 C24.8,1.9 25.1,2.1 25.2,2 L25.5,1.8 C25.6,1.7 25.6,1.5 25.5,1.2 C25.4,1 25.1,0.8 25,0.9 L24.7,1.1 C24.6,1.2 24.6,1.4 24.7,1.7 L24.7,1.7 Z"></path>
                        <path d="M0.2,15.8 C0.3,16 0.6,16.2 0.7,16.1 L1,15.9 C1.1,15.8 1.1,15.6 1,15.3 C0.9,15.1 0.6,14.9 0.5,15 L0.2,15.2 C0.1,15.3 0.1,15.6 0.2,15.8 L0.2,15.8 Z"></path>
                    </g>
                </g>
                <g id="Group" transform="translate(1147.000000, 6.000000)">
                    <path d="M18.9,5.2 C17.2,5.2 14.8,6.1 13.5,8.7 C12.3,6.1 9.9,5.2 8.1,5.2 C5.4,5.2 2.5,7.2 2.5,11.6 C2.5,14.8 4.3,18.2 7.9,21.6 C10.5,24.1 13.1,25.6 13.2,25.7 C13.3,25.8 13.4,25.8 13.5,25.8 C13.6,25.8 13.7,25.8 13.8,25.7 C13.9,25.6 16.5,24.1 19.1,21.6 C22.7,18.2 24.5,14.9 24.5,11.6 C24.5,7.2 21.6,5.2 18.9,5.2 L18.9,5.2 Z" id="coeur_7_" fill="#E768A4"></path>
                    <g transform="translate(13.000000, 0.000000)" id="Shape" fill="#CE2D4E">
                        <path d="M0.5,29.1 C0.2,29.1 0,29.2 0,29.4 L0,29.8 C0,30 0.2,30.1 0.5,30.1 C0.8,30.1 1,30 1,29.8 L1,29.4 C1,29.3 0.8,29.1 0.5,29.1 L0.5,29.1 Z"></path>
                        <path d="M0.5,0.8 C0.2,0.8 0,0.9 0,1.1 L0,1.5 C0,1.7 0.2,1.8 0.5,1.8 C0.8,1.8 1,1.7 1,1.5 L1,1.1 C1,1 0.8,0.8 0.5,0.8 L0.5,0.8 Z"></path>
                    </g>
                    <g transform="translate(0.000000, 7.000000)" id="Shape" fill="#CE2D4E">
                        <path d="M25.3,15.3 C25.2,15.5 25.2,15.8 25.3,15.9 L25.6,16.1 C25.7,16.2 26,16.1 26.1,15.8 C26.2,15.6 26.2,15.3 26.1,15.2 L25.8,15 C25.7,14.9 25.5,15.1 25.3,15.3 L25.3,15.3 Z"></path>
                        <path d="M0.8,1.2 C0.7,1.4 0.7,1.7 0.8,1.8 L1.1,2 C1.2,2.1 1.5,2 1.6,1.7 C1.7,1.5 1.7,1.2 1.6,1.1 L1.3,0.9 C1.2,0.8 1,0.9 0.8,1.2 L0.8,1.2 Z"></path>
                    </g>
                    <g transform="translate(0.000000, 7.000000)" id="Shape" fill="#CE2D4E">
                        <path d="M25.3,1.7 C25.4,1.9 25.7,2.1 25.8,2 L26.1,1.8 C26.2,1.7 26.2,1.5 26.1,1.2 C26,1 25.7,0.8 25.6,0.9 L25.3,1.1 C25.2,1.2 25.2,1.4 25.3,1.7 L25.3,1.7 Z"></path>
                        <path d="M0.8,15.8 C0.9,16 1.2,16.2 1.3,16.1 L1.6,15.9 C1.7,15.8 1.7,15.6 1.6,15.3 C1.5,15.1 1.2,14.9 1.1,15 L0.8,15.2 C0.7,15.3 0.7,15.6 0.8,15.8 L0.8,15.8 Z"></path>
                    </g>
                </g>
                <g id="Group" transform="translate(1211.000000, 6.000000)">
                    <path d="M19.2,4.8 C17.4,4.8 14.9,5.8 13.6,8.5 C12.3,5.8 9.8,4.8 8,4.8 C5.2,4.8 2.1,6.9 2.1,11.5 C2.1,14.9 4,18.4 7.7,21.9 C10.4,24.5 13.1,26.1 13.2,26.2 C13.3,26.3 13.4,26.3 13.5,26.3 C13.6,26.3 13.7,26.3 13.8,26.2 C13.9,26.1 16.6,24.5 19.3,21.9 C23,18.4 24.9,14.9 24.9,11.5 C25,6.9 22,4.8 19.2,4.8 L19.2,4.8 Z" id="coeur_8_" fill="#E768A4"></path>
                    <g transform="translate(13.000000, 0.000000)" id="Shape" fill="#CE2D4E">
                        <path d="M0.5,29.1 C0.2,29.1 0,29.2 0,29.4 L0,29.8 C0,30 0.2,30.1 0.5,30.1 C0.8,30.1 1,30 1,29.8 L1,29.4 C1,29.3 0.8,29.1 0.5,29.1 L0.5,29.1 Z"></path>
                        <path d="M0.5,0.8 C0.2,0.8 0,0.9 0,1.1 L0,1.5 C0,1.7 0.2,1.8 0.5,1.8 C0.8,1.8 1,1.7 1,1.5 L1,1.1 C1,1 0.8,0.8 0.5,0.8 L0.5,0.8 Z"></path>
                    </g>
                    <g transform="translate(0.000000, 7.000000)" id="Shape" fill="#CE2D4E">
                        <path d="M25.4,15.3 C25.3,15.5 25.3,15.8 25.4,15.9 L25.7,16.1 C25.8,16.2 26.1,16.1 26.2,15.8 C26.3,15.6 26.3,15.3 26.2,15.2 L25.9,15 C25.7,14.9 25.5,15.1 25.4,15.3 L25.4,15.3 Z"></path>
                        <path d="M0.9,1.2 C0.8,1.4 0.8,1.7 0.9,1.8 L1.2,2 C1.3,2.1 1.6,2 1.7,1.7 C1.8,1.5 1.8,1.2 1.7,1.1 L1.4,0.9 C1.2,0.8 1,0.9 0.9,1.2 L0.9,1.2 Z"></path>
                    </g>
                    <g transform="translate(0.000000, 7.000000)" id="Shape" fill="#CE2D4E">
                        <path d="M25.4,1.7 C25.5,1.9 25.8,2.1 25.9,2 L26.2,1.8 C26.3,1.7 26.3,1.5 26.2,1.2 C26.1,1 25.8,0.8 25.7,0.9 L25.4,1.1 C25.2,1.2 25.2,1.4 25.4,1.7 L25.4,1.7 Z"></path>
                        <path d="M0.9,15.8 C1,16 1.3,16.2 1.4,16.1 L1.7,15.9 C1.8,15.8 1.8,15.6 1.7,15.3 C1.6,15.1 1.3,14.9 1.2,15 L0.9,15.2 C0.7,15.3 0.7,15.6 0.9,15.8 L0.9,15.8 Z"></path>
                    </g>
                </g>
                <g id="Group" transform="translate(1274.000000, 5.000000)">
                    <path d="M20.3,5.3 C18.4,5.3 15.8,6.3 14.4,9.2 C13.1,6.4 10.4,5.3 8.5,5.3 C5.5,5.3 2.4,7.5 2.4,12.3 C2.4,15.8 4.4,19.5 8.3,23.2 C11.2,25.9 14,27.6 14.1,27.6 C14.2,27.7 14.3,27.7 14.4,27.7 C14.5,27.7 14.6,27.7 14.7,27.6 C14.8,27.5 17.6,25.9 20.5,23.2 C24.4,19.5 26.4,15.9 26.4,12.3 C26.5,7.5 23.3,5.3 20.3,5.3 L20.3,5.3 Z" id="coeur_9_" fill="#E768A4"></path>
                    <g transform="translate(14.000000, 0.000000)" id="Shape" fill="#CE2D4E">
                        <path d="M0.5,31.1 C0.2,31.1 0,31.2 0,31.4 L0,31.8 C0,32 0.2,32.1 0.5,32.1 C0.8,32.1 1,32 1,31.8 L1,31.4 C1,31.3 0.7,31.1 0.5,31.1 L0.5,31.1 Z"></path>
                        <path d="M0.5,0.8 C0.2,0.8 0,0.9 0,1.1 L0,1.5 C0,1.7 0.2,1.8 0.5,1.8 C0.8,1.8 1,1.7 1,1.5 L1,1.1 C1,1 0.7,0.8 0.5,0.8 L0.5,0.8 Z"></path>
                    </g>
                    <g transform="translate(0.000000, 8.000000)" id="Shape" fill="#CE2D4E">
                        <path d="M27.1,15.8 C27,16 27,16.3 27.1,16.4 L27.4,16.6 C27.5,16.7 27.8,16.6 27.9,16.3 C28,16.1 28,15.8 27.9,15.7 L27.6,15.5 C27.5,15.4 27.3,15.6 27.1,15.8 L27.1,15.8 Z"></path>
                        <path d="M0.9,0.7 C0.8,0.9 0.8,1.2 0.9,1.3 L1.2,1.5 C1.3,1.6 1.6,1.5 1.7,1.2 C1.8,1 1.8,0.7 1.7,0.6 L1.4,0.4 C1.3,0.3 1.1,0.4 0.9,0.7 L0.9,0.7 Z"></path>
                    </g>
                    <g transform="translate(0.000000, 8.000000)" id="Shape" fill="#CE2D4E">
                        <path d="M27.1,1.2 C27.2,1.4 27.5,1.6 27.6,1.5 L27.9,1.3 C28,1.2 28,1 27.9,0.7 C27.8,0.5 27.5,0.3 27.4,0.4 L27.1,0.6 C27,0.7 27,0.9 27.1,1.2 L27.1,1.2 Z"></path>
                        <path d="M0.9,16.3 C1,16.5 1.3,16.7 1.4,16.6 L1.7,16.4 C1.8,16.3 1.8,16.1 1.7,15.8 C1.6,15.6 1.3,15.4 1.2,15.5 L0.9,15.7 C0.8,15.8 0.8,16.1 0.9,16.3 L0.9,16.3 Z"></path>
                    </g>
                </g>
                <g id="Group" transform="translate(1338.000000, 5.000000)">
                    <path d="M20.6,4.8 C18.6,4.8 15.9,5.9 14.5,8.8 C13.1,5.8 10.4,4.8 8.4,4.8 C5.3,4.8 2,7.1 2,12.1 C2,15.8 4.1,19.6 8.1,23.4 C11.1,26.2 14,28 14.1,28 C14.2,28.1 14.3,28.1 14.5,28.1 C14.6,28.1 14.7,28.1 14.9,28 C15,27.9 18,26.2 20.9,23.4 C25,19.6 27,15.8 27,12.1 C27,7.1 23.7,4.8 20.6,4.8 L20.6,4.8 Z" id="coeur_10_" fill="#E768A4"></path>
                    <g transform="translate(14.000000, 0.000000)" id="Shape" fill="#CE2D4E">
                        <path d="M0.5,31.1 C0.2,31.1 0,31.2 0,31.4 L0,31.8 C0,32 0.2,32.1 0.5,32.1 C0.8,32.1 1,32 1,31.8 L1,31.4 C1,31.3 0.8,31.1 0.5,31.1 L0.5,31.1 Z"></path>
                        <path d="M0.5,0.8 C0.2,0.8 0,0.9 0,1.1 L0,1.5 C0,1.7 0.2,1.8 0.5,1.8 C0.8,1.8 1,1.7 1,1.5 L1,1.1 C1,1 0.8,0.8 0.5,0.8 L0.5,0.8 Z"></path>
                    </g>
                    <g transform="translate(0.000000, 8.000000)" id="Shape" fill="#CE2D4E">
                        <path d="M27.2,15.8 C27.1,16 27.1,16.3 27.2,16.4 L27.5,16.6 C27.6,16.7 27.9,16.6 28,16.3 C28.1,16.1 28.1,15.8 28,15.7 L27.7,15.5 C27.6,15.4 27.4,15.6 27.2,15.8 L27.2,15.8 Z"></path>
                        <path d="M1,0.7 C0.9,0.9 0.9,1.2 1,1.3 L1.3,1.5 C1.4,1.6 1.7,1.5 1.8,1.2 C1.9,1 1.9,0.7 1.8,0.6 L1.5,0.4 C1.4,0.3 1.1,0.4 1,0.7 L1,0.7 Z"></path>
                    </g>
                    <g transform="translate(0.000000, 8.000000)" id="Shape" fill="#CE2D4E">
                        <path d="M27.2,1.2 C27.3,1.4 27.6,1.6 27.7,1.5 L28,1.3 C28.1,1.2 28.1,1 28,0.7 C27.9,0.5 27.6,0.3 27.5,0.4 L27.2,0.6 C27.1,0.7 27.1,0.9 27.2,1.2 L27.2,1.2 Z"></path>
                        <path d="M1,16.3 C1.1,16.5 1.4,16.7 1.5,16.6 L1.8,16.4 C1.9,16.3 1.9,16.1 1.8,15.8 C1.7,15.6 1.4,15.4 1.3,15.5 L1,15.7 C0.9,15.8 0.9,16.1 1,16.3 L1,16.3 Z"></path>
                    </g>
                </g>
                <g id="Group" transform="translate(1402.000000, 5.000000)">
                    <path d="M20.6,4.8 C18.6,4.8 15.9,5.9 14.5,8.8 C13.1,5.8 10.4,4.8 8.4,4.8 C5.3,4.8 2,7.1 2,12.1 C2,15.8 4.1,19.6 8.1,23.4 C11.1,26.2 14,28 14.1,28 C14.2,28.1 14.3,28.1 14.5,28.1 C14.6,28.1 14.7,28.1 14.9,28 C15,27.9 18,26.2 20.9,23.4 C25,19.6 27,15.8 27,12.1 C27,7.1 23.7,4.8 20.6,4.8 L20.6,4.8 Z" id="coeur_11_" fill="#E768A4"></path>
                    <g transform="translate(14.000000, 0.000000)" id="Shape" fill="#CE2D4E">
                        <path d="M0.5,31.1 C0.2,31.1 0,31.2 0,31.4 L0,31.8 C0,32 0.2,32.1 0.5,32.1 C0.8,32.1 1,32 1,31.8 L1,31.4 C1,31.3 0.8,31.1 0.5,31.1 L0.5,31.1 Z"></path>
                        <path d="M0.5,0.8 C0.2,0.8 0,0.9 0,1.1 L0,1.5 C0,1.7 0.2,1.8 0.5,1.8 C0.8,1.8 1,1.7 1,1.5 L1,1.1 C1,1 0.8,0.8 0.5,0.8 L0.5,0.8 Z"></path>
                    </g>
                    <g transform="translate(0.000000, 8.000000)" id="Shape" fill="#CE2D4E">
                        <path d="M27.2,15.8 C27.1,16 27.1,16.3 27.2,16.4 L27.5,16.6 C27.6,16.7 27.9,16.6 28,16.3 C28.1,16.1 28.1,15.8 28,15.7 L27.7,15.5 C27.6,15.4 27.3,15.6 27.2,15.8 L27.2,15.8 Z"></path>
                        <path d="M1,0.7 C0.9,0.9 0.9,1.2 1,1.3 L1.3,1.5 C1.4,1.6 1.7,1.5 1.8,1.2 C1.9,1 1.9,0.7 1.8,0.6 L1.5,0.4 C1.3,0.3 1.1,0.4 1,0.7 L1,0.7 Z"></path>
                    </g>
                    <g transform="translate(0.000000, 8.000000)" id="Shape" fill="#CE2D4E">
                        <path d="M27.2,1.2 C27.3,1.4 27.6,1.6 27.7,1.5 L28,1.3 C28.1,1.2 28.1,1 28,0.7 C27.9,0.5 27.6,0.3 27.5,0.4 L27.2,0.6 C27.1,0.7 27.1,0.9 27.2,1.2 L27.2,1.2 Z"></path>
                        <path d="M1,16.3 C1.1,16.5 1.4,16.7 1.5,16.6 L1.8,16.4 C1.9,16.3 1.9,16.1 1.8,15.8 C1.7,15.6 1.4,15.4 1.3,15.5 L1,15.7 C0.8,15.8 0.8,16.1 1,16.3 L1,16.3 Z"></path>
                    </g>
                </g>
                <g id="Group" transform="translate(1466.000000, 5.000000)">
                    <path d="M20.6,4.8 C18.6,4.8 15.9,5.9 14.5,8.8 C13.1,5.8 10.4,4.8 8.4,4.8 C5.3,4.8 2,7.1 2,12.1 C2,15.8 4.1,19.6 8.1,23.4 C11.1,26.2 14,28 14.1,28 C14.2,28.1 14.3,28.1 14.5,28.1 C14.6,28.1 14.7,28.1 14.9,28 C15,27.9 18,26.2 20.9,23.4 C25,19.6 27,15.8 27,12.1 C27,7.1 23.7,4.8 20.6,4.8 L20.6,4.8 Z" id="coeur_12_" fill="#E768A4"></path>
                    <g transform="translate(14.000000, 0.000000)" id="Shape" fill="#CE2D4E">
                        <path d="M0.5,31.1 C0.2,31.1 0,31.2 0,31.4 L0,31.8 C0,32 0.2,32.1 0.5,32.1 C0.8,32.1 1,32 1,31.8 L1,31.4 C1,31.3 0.8,31.1 0.5,31.1 L0.5,31.1 Z"></path>
                        <path d="M0.5,0.8 C0.2,0.8 0,0.9 0,1.1 L0,1.5 C0,1.7 0.2,1.8 0.5,1.8 C0.8,1.8 1,1.7 1,1.5 L1,1.1 C1,1 0.8,0.8 0.5,0.8 L0.5,0.8 Z"></path>
                    </g>
                    <g transform="translate(0.000000, 8.000000)" id="Shape" fill="#CE2D4E">
                        <path d="M27.2,15.8 C27.1,16 27.1,16.3 27.2,16.4 L27.5,16.6 C27.6,16.7 27.9,16.6 28,16.3 C28.1,16.1 28.1,15.8 28,15.7 L27.7,15.5 C27.6,15.4 27.3,15.6 27.2,15.8 L27.2,15.8 Z"></path>
                        <path d="M1,0.7 C0.9,0.9 0.9,1.2 1,1.3 L1.3,1.5 C1.4,1.6 1.7,1.5 1.8,1.2 C1.9,1 1.9,0.7 1.8,0.6 L1.5,0.4 C1.3,0.3 1.1,0.4 1,0.7 L1,0.7 Z"></path>
                    </g>
                    <g transform="translate(0.000000, 8.000000)" id="Shape" fill="#CE2D4E">
                        <path d="M27.2,1.2 C27.3,1.4 27.6,1.6 27.7,1.5 L28,1.3 C28.1,1.2 28.1,1 28,0.7 C27.9,0.5 27.6,0.3 27.5,0.4 L27.2,0.6 C27.1,0.7 27.1,0.9 27.2,1.2 L27.2,1.2 Z"></path>
                        <path d="M1,16.3 C1.1,16.5 1.4,16.7 1.5,16.6 L1.8,16.4 C1.9,16.3 1.9,16.1 1.8,15.8 C1.7,15.6 1.4,15.4 1.3,15.5 L1,15.7 C0.8,15.8 0.8,16.1 1,16.3 L1,16.3 Z"></path>
                    </g>
                </g>
                <g id="Group" transform="translate(1530.000000, 5.000000)">
                    <path d="M20.4,5.3 C18.5,5.3 15.9,6.3 14.5,9.2 C13.2,6.4 10.5,5.3 8.6,5.3 C5.6,5.3 2.5,7.5 2.5,12.3 C2.5,15.8 4.5,19.5 8.4,23.2 C11.3,25.9 14.1,27.6 14.2,27.6 C14.3,27.7 14.4,27.7 14.5,27.7 C14.6,27.7 14.7,27.7 14.8,27.6 C14.9,27.5 17.7,25.9 20.6,23.2 C24.5,19.5 26.5,15.9 26.5,12.3 C26.5,7.5 23.3,5.3 20.4,5.3 L20.4,5.3 Z" id="coeur_13_" fill="#E768A4"></path>
                    <g transform="translate(14.000000, 0.000000)" id="Shape" fill="#CE2D4E">
                        <path d="M0.5,31.1 C0.2,31.1 0,31.2 0,31.4 L0,31.8 C0,32 0.2,32.1 0.5,32.1 C0.8,32.1 1,32 1,31.8 L1,31.4 C1,31.3 0.8,31.1 0.5,31.1 L0.5,31.1 Z"></path>
                        <path d="M0.5,0.8 C0.2,0.8 0,0.9 0,1.1 L0,1.5 C0,1.7 0.2,1.8 0.5,1.8 C0.8,1.8 1,1.7 1,1.5 L1,1.1 C1,1 0.8,0.8 0.5,0.8 L0.5,0.8 Z"></path>
                    </g>
                    <g transform="translate(0.000000, 8.000000)" id="Shape" fill="#CE2D4E">
                        <path d="M27.2,15.8 C27.1,16 27.1,16.3 27.2,16.4 L27.5,16.6 C27.6,16.7 27.9,16.6 28,16.3 C28.1,16.1 28.1,15.8 28,15.7 L27.7,15.5 C27.6,15.4 27.3,15.6 27.2,15.8 L27.2,15.8 Z"></path>
                        <path d="M1,0.7 C0.9,0.9 0.9,1.2 1,1.3 L1.3,1.5 C1.4,1.6 1.7,1.5 1.8,1.2 C1.9,1 1.9,0.7 1.8,0.6 L1.5,0.4 C1.3,0.3 1.1,0.4 1,0.7 L1,0.7 Z"></path>
                    </g>
                    <g transform="translate(0.000000, 8.000000)" id="Shape" fill="#CE2D4E">
                        <path d="M27.2,1.2 C27.3,1.4 27.6,1.6 27.7,1.5 L28,1.3 C28.1,1.2 28.1,1 28,0.7 C27.9,0.5 27.6,0.3 27.5,0.4 L27.2,0.6 C27.1,0.7 27.1,0.9 27.2,1.2 L27.2,1.2 Z"></path>
                        <path d="M1,16.3 C1.1,16.5 1.4,16.7 1.5,16.6 L1.8,16.4 C1.9,16.3 1.9,16.1 1.8,15.8 C1.7,15.6 1.4,15.4 1.3,15.5 L1,15.7 C0.8,15.8 0.8,16.1 1,16.3 L1,16.3 Z"></path>
                    </g>
                </g>
                <g id="Group" transform="translate(1594.000000, 5.000000)">
                    <path d="M20.3,5.5 C18.4,5.5 15.9,6.5 14.6,9.3 C13.3,6.5 10.7,5.5 8.9,5.5 C6,5.5 2.9,7.6 2.9,12.3 C2.9,15.7 4.8,19.3 8.7,22.9 C11.5,25.5 14.2,27.2 14.4,27.3 C14.5,27.4 14.6,27.4 14.7,27.4 C14.8,27.4 14.9,27.4 15,27.3 C15.1,27.2 17.9,25.6 20.7,22.9 C24.5,19.3 26.5,15.7 26.5,12.3 C26.3,7.7 23.2,5.5 20.3,5.5 L20.3,5.5 Z" id="coeur_14_" fill="#E768A4"></path>
                    <g transform="translate(14.000000, 0.000000)" id="Shape" fill="#CE2D4E">
                        <path d="M0.5,31.1 C0.2,31.1 0,31.2 0,31.4 L0,31.8 C0,32 0.2,32.1 0.5,32.1 C0.8,32.1 1,32 1,31.8 L1,31.4 C1,31.3 0.8,31.1 0.5,31.1 L0.5,31.1 Z"></path>
                        <path d="M0.5,0.8 C0.2,0.8 0,0.9 0,1.1 L0,1.5 C0,1.7 0.2,1.8 0.5,1.8 C0.8,1.8 1,1.7 1,1.5 L1,1.1 C1,1 0.8,0.8 0.5,0.8 L0.5,0.8 Z"></path>
                    </g>
                    <g transform="translate(0.000000, 8.000000)" id="Shape" fill="#CE2D4E">
                        <path d="M27.2,15.8 C27.1,16 27.1,16.3 27.2,16.4 L27.5,16.6 C27.6,16.7 27.9,16.6 28,16.3 C28.1,16.1 28.1,15.8 28,15.7 L27.7,15.5 C27.6,15.4 27.3,15.6 27.2,15.8 L27.2,15.8 Z"></path>
                        <path d="M1,0.7 C0.9,0.9 0.9,1.2 1,1.3 L1.3,1.5 C1.4,1.6 1.7,1.5 1.8,1.2 C1.9,1 1.9,0.7 1.8,0.6 L1.5,0.4 C1.3,0.3 1.1,0.4 1,0.7 L1,0.7 Z"></path>
                    </g>
                    <g transform="translate(0.000000, 8.000000)" id="Shape" fill="#CE2D4E">
                        <path d="M27.2,1.2 C27.3,1.4 27.6,1.6 27.7,1.5 L28,1.3 C28.1,1.2 28.1,1 28,0.7 C27.9,0.5 27.6,0.3 27.5,0.4 L27.2,0.6 C27.1,0.7 27.1,0.9 27.2,1.2 L27.2,1.2 Z"></path>
                        <path d="M1,16.3 C1.1,16.5 1.4,16.7 1.5,16.6 L1.8,16.4 C1.9,16.3 1.9,16.1 1.8,15.8 C1.7,15.6 1.4,15.4 1.3,15.5 L1,15.7 C0.8,15.8 0.8,16.1 1,16.3 L1,16.3 Z"></path>
                    </g>
                </g>
                <g id="Group" transform="translate(1659.000000, 5.000000)">
                    <path d="M19.6,5.7 C17.8,5.7 15.3,6.7 14,9.4 C12.7,6.7 10.2,5.7 8.4,5.7 C5.6,5.7 2.5,7.8 2.5,12.4 C2.5,15.8 4.4,19.3 8.1,22.8 C10.8,25.4 13.5,27 13.6,27.1 C13.7,27.2 13.8,27.2 13.9,27.2 C14,27.2 14.1,27.2 14.2,27.1 C14.3,27 17,25.4 19.7,22.8 C23.4,19.3 25.3,15.8 25.3,12.4 C25.5,7.8 22.5,5.7 19.6,5.7 L19.6,5.7 Z" id="coeur_15_" fill="#E768A4"></path>
                    <g transform="translate(13.000000, 0.000000)" id="Shape" fill="#CE2D4E">
                        <path d="M1,31.1 C0.7,31.1 0.5,31.2 0.5,31.4 L0.5,31.8 C0.5,32 0.7,32.1 1,32.1 C1.3,32.1 1.5,32 1.5,31.8 L1.5,31.4 C1.5,31.2 1.3,31.1 1,31.1 L1,31.1 Z"></path>
                        <path d="M1,0.8 C0.7,0.8 0.5,0.9 0.5,1.1 L0.5,1.5 C0.5,1.7 0.7,1.8 1,1.8 C1.3,1.8 1.5,1.7 1.5,1.5 L1.5,1.1 C1.5,0.9 1.3,0.8 1,0.8 L1,0.8 Z"></path>
                    </g>
                    <g transform="translate(0.000000, 8.000000)" id="Shape" fill="#CE2D4E">
                        <path d="M26.7,15.8 C26.6,16 26.6,16.3 26.7,16.4 L27,16.6 C27.1,16.7 27.4,16.6 27.5,16.3 C27.6,16.1 27.6,15.8 27.5,15.7 L27.2,15.5 C27.1,15.4 26.8,15.5 26.7,15.8 L26.7,15.8 Z"></path>
                        <path d="M0.5,0.6 C0.4,0.8 0.4,1.1 0.5,1.2 L0.8,1.4 C0.9,1.5 1.2,1.4 1.3,1.1 C1.4,0.9 1.4,0.6 1.3,0.5 L1,0.3 C0.8,0.3 0.6,0.4 0.5,0.6 L0.5,0.6 Z"></path>
                    </g>
                    <g transform="translate(0.000000, 8.000000)" id="Shape" fill="#CE2D4E">
                        <path d="M26.7,1.1 C26.8,1.3 27.1,1.5 27.2,1.4 L27.5,1.2 C27.6,1.1 27.6,0.9 27.5,0.6 C27.4,0.4 27.1,0.2 27,0.3 L26.7,0.5 C26.6,0.6 26.6,0.9 26.7,1.1 L26.7,1.1 Z"></path>
                        <path d="M0.5,16.3 C0.6,16.5 0.9,16.7 1,16.6 L1.3,16.4 C1.4,16.3 1.4,16.1 1.3,15.8 C1.2,15.6 0.9,15.4 0.8,15.5 L0.5,15.7 C0.3,15.8 0.3,16 0.5,16.3 L0.5,16.3 Z"></path>
                    </g>
                </g>
                <g id="Group" transform="translate(1723.000000, 5.000000)">
                    <path d="M19.4,6.2 C17.7,6.2 15.3,7.1 14,9.7 C12.8,7.1 10.4,6.2 8.6,6.2 C5.9,6.2 3,8.2 3,12.6 C3,15.8 4.8,19.2 8.4,22.6 C11,25.1 13.6,26.6 13.7,26.7 C13.8,26.8 13.9,26.8 14,26.8 C14.1,26.8 14.2,26.8 14.3,26.7 C14.4,26.6 17,25.1 19.6,22.6 C23.2,19.2 25,15.9 25,12.6 C25,8.2 22.1,6.2 19.4,6.2 L19.4,6.2 Z" id="coeur_16_" fill="#E768A4"></path>
                    <g transform="translate(13.000000, 0.000000)" id="Shape" fill="#CE2D4E">
                        <path d="M1,31.1 C0.7,31.1 0.5,31.2 0.5,31.4 L0.5,31.8 C0.5,32 0.7,32.1 1,32.1 C1.3,32.1 1.5,32 1.5,31.8 L1.5,31.4 C1.5,31.2 1.3,31.1 1,31.1 L1,31.1 Z"></path>
                        <path d="M1,0.8 C0.7,0.8 0.5,0.9 0.5,1.1 L0.5,1.5 C0.5,1.7 0.7,1.8 1,1.8 C1.3,1.8 1.5,1.7 1.5,1.5 L1.5,1.1 C1.5,0.9 1.3,0.8 1,0.8 L1,0.8 Z"></path>
                    </g>
                    <g transform="translate(0.000000, 8.000000)" id="Shape" fill="#CE2D4E">
                        <path d="M26.7,15.8 C26.6,16 26.6,16.3 26.7,16.4 L27,16.6 C27.1,16.7 27.4,16.6 27.5,16.3 C27.6,16.1 27.6,15.8 27.5,15.7 L27.2,15.5 C27.1,15.4 26.8,15.5 26.7,15.8 L26.7,15.8 Z"></path>
                        <path d="M0.5,0.6 C0.4,0.8 0.4,1.1 0.5,1.2 L0.8,1.4 C0.9,1.5 1.2,1.4 1.3,1.1 C1.4,0.9 1.4,0.6 1.3,0.5 L1,0.3 C0.8,0.3 0.6,0.4 0.5,0.6 L0.5,0.6 Z"></path>
                    </g>
                    <g transform="translate(0.000000, 8.000000)" id="Shape" fill="#CE2D4E">
                        <path d="M26.7,1.1 C26.8,1.3 27.1,1.5 27.2,1.4 L27.5,1.2 C27.6,1.1 27.6,0.9 27.5,0.6 C27.4,0.4 27.1,0.2 27,0.3 L26.7,0.5 C26.6,0.6 26.6,0.9 26.7,1.1 L26.7,1.1 Z"></path>
                        <path d="M0.5,16.3 C0.6,16.5 0.9,16.7 1,16.6 L1.3,16.4 C1.4,16.3 1.4,16.1 1.3,15.8 C1.2,15.6 0.9,15.4 0.8,15.5 L0.5,15.7 C0.3,15.8 0.3,16 0.5,16.3 L0.5,16.3 Z"></path>
                    </g>
                </g>
                <g id="Group" transform="translate(1787.000000, 5.000000)">
                    <path d="M19.3,6.2 C17.6,6.2 15.2,7.1 13.9,9.7 C12.7,7.1 10.3,6.2 8.5,6.2 C5.8,6.2 2.9,8.2 2.9,12.6 C2.9,15.8 4.7,19.2 8.3,22.6 C10.9,25.1 13.5,26.6 13.6,26.7 C13.7,26.8 13.8,26.8 13.9,26.8 C14,26.8 14.1,26.8 14.2,26.7 C14.3,26.6 16.9,25.1 19.5,22.6 C23.1,19.2 24.9,15.9 24.9,12.6 C25,8.2 22,6.2 19.3,6.2 L19.3,6.2 Z" id="coeur_17_" fill="#E768A4"></path>
                    <g transform="translate(13.000000, 0.000000)" id="Shape" fill="#CE2D4E">
                        <path d="M1,31.1 C0.7,31.1 0.5,31.2 0.5,31.4 L0.5,31.8 C0.5,32 0.7,32.1 1,32.1 C1.3,32.1 1.5,32 1.5,31.8 L1.5,31.4 C1.5,31.2 1.2,31.1 1,31.1 L1,31.1 Z"></path>
                        <path d="M1,0.8 C0.7,0.8 0.5,0.9 0.5,1.1 L0.5,1.5 C0.5,1.7 0.7,1.8 1,1.8 C1.3,1.8 1.5,1.7 1.5,1.5 L1.5,1.1 C1.5,0.9 1.2,0.8 1,0.8 L1,0.8 Z"></path>
                    </g>
                    <g transform="translate(0.000000, 8.000000)" id="Shape" fill="#CE2D4E">
                        <path d="M26.6,15.8 C26.5,16 26.5,16.3 26.6,16.4 L26.9,16.6 C27,16.7 27.3,16.6 27.4,16.3 C27.5,16.1 27.5,15.8 27.4,15.7 L27.1,15.5 C27,15.4 26.8,15.5 26.6,15.8 L26.6,15.8 Z"></path>
                        <path d="M0.4,0.6 C0.3,0.8 0.3,1.1 0.4,1.2 L0.7,1.4 C0.8,1.5 1.1,1.4 1.2,1.1 C1.3,0.9 1.3,0.6 1.2,0.5 L0.9,0.3 C0.8,0.3 0.5,0.4 0.4,0.6 L0.4,0.6 Z"></path>
                    </g>
                    <g transform="translate(0.000000, 8.000000)" id="Shape" fill="#CE2D4E">
                        <path d="M26.6,1.1 C26.7,1.3 27,1.5 27.1,1.4 L27.4,1.2 C27.5,1.1 27.5,0.9 27.4,0.6 C27.3,0.4 27,0.2 26.9,0.3 L26.6,0.5 C26.5,0.6 26.5,0.9 26.6,1.1 L26.6,1.1 Z"></path>
                        <path d="M0.4,16.3 C0.5,16.5 0.8,16.7 0.9,16.6 L1.2,16.4 C1.3,16.3 1.3,16.1 1.2,15.8 C1.1,15.6 0.8,15.4 0.7,15.5 L0.4,15.7 C0.3,15.8 0.3,16 0.4,16.3 L0.4,16.3 Z"></path>
                    </g>
                </g>
                <g id="Group" transform="translate(1851.000000, 5.000000)">
                    <path d="M19.1,6.7 C17.4,6.7 15.2,7.6 14,10.1 C12.8,7.6 10.5,6.7 8.9,6.7 C6.3,6.7 3.5,8.6 3.5,12.8 C3.5,15.9 5.2,19.1 8.6,22.3 C11.1,24.7 13.6,26.1 13.7,26.2 C13.8,26.3 13.9,26.3 14,26.3 C14.1,26.3 14.2,26.3 14.3,26.2 C14.4,26.1 16.9,24.7 19.4,22.3 C22.8,19.1 24.5,15.9 24.5,12.8 C24.5,8.6 21.7,6.7 19.1,6.7 L19.1,6.7 Z" id="coeur_18_" fill="#E768A4"></path>
                    <g transform="translate(13.000000, 0.000000)" id="Shape" fill="#CE2D4E">
                        <path d="M1,31.1 C0.7,31.1 0.5,31.2 0.5,31.4 L0.5,31.8 C0.5,32 0.7,32.1 1,32.1 C1.3,32.1 1.5,32 1.5,31.8 L1.5,31.4 C1.5,31.2 1.2,31.1 1,31.1 L1,31.1 Z"></path>
                        <path d="M1,0.8 C0.7,0.8 0.5,0.9 0.5,1.1 L0.5,1.5 C0.5,1.7 0.7,1.8 1,1.8 C1.3,1.8 1.5,1.7 1.5,1.5 L1.5,1.1 C1.5,0.9 1.2,0.8 1,0.8 L1,0.8 Z"></path>
                    </g>
                    <g transform="translate(0.000000, 8.000000)" id="Shape" fill="#CE2D4E">
                        <path d="M26.6,15.8 C26.5,16 26.5,16.3 26.6,16.4 L26.9,16.6 C27,16.7 27.3,16.6 27.4,16.3 C27.5,16.1 27.5,15.8 27.4,15.7 L27.1,15.5 C27,15.4 26.8,15.5 26.6,15.8 L26.6,15.8 Z"></path>
                        <path d="M0.4,0.6 C0.3,0.8 0.3,1.1 0.4,1.2 L0.7,1.4 C0.8,1.5 1.1,1.4 1.2,1.1 C1.3,0.9 1.3,0.6 1.2,0.5 L0.9,0.3 C0.8,0.3 0.5,0.4 0.4,0.6 L0.4,0.6 Z"></path>
                    </g>
                    <g transform="translate(0.000000, 8.000000)" id="Shape" fill="#CE2D4E">
                        <path d="M26.6,1.1 C26.7,1.3 27,1.5 27.1,1.4 L27.4,1.2 C27.5,1.1 27.5,0.9 27.4,0.6 C27.3,0.4 27,0.2 26.9,0.3 L26.6,0.5 C26.5,0.6 26.5,0.9 26.6,1.1 L26.6,1.1 Z"></path>
                        <path d="M0.4,16.3 C0.5,16.5 0.8,16.7 0.9,16.6 L1.2,16.4 C1.3,16.3 1.3,16.1 1.2,15.8 C1.1,15.6 0.8,15.4 0.7,15.5 L0.4,15.7 C0.3,15.8 0.3,16 0.4,16.3 L0.4,16.3 Z"></path>
                    </g>
                </g>
                <g id="Group" transform="translate(1915.000000, 5.000000)">
                    <path d="M18.8,7.1 C17.2,7.1 15,8 13.9,10.3 C12.8,7.9 10.6,7.1 9,7.1 C6.5,7.1 3.9,8.9 3.9,12.9 C3.9,15.8 5.5,18.9 8.8,21.9 C11.2,24.1 13.5,25.5 13.6,25.6 C13.7,25.7 13.8,25.7 13.9,25.7 C14,25.7 14.1,25.7 14.2,25.6 C14.3,25.5 16.6,24.1 19,21.9 C22.3,18.8 23.9,15.8 23.9,12.9 C24,9 21.3,7.1 18.8,7.1 L18.8,7.1 Z" id="coeur_19_" fill="#E768A4"></path>
                    <g transform="translate(13.000000, 0.000000)" id="Shape" fill="#CE2D4E">
                        <path d="M1,31.1 C0.7,31.1 0.5,31.2 0.5,31.4 L0.5,31.8 C0.5,32 0.7,32.1 1,32.1 C1.3,32.1 1.5,32 1.5,31.8 L1.5,31.4 C1.5,31.2 1.2,31.1 1,31.1 L1,31.1 Z"></path>
                        <path d="M1,0.8 C0.7,0.8 0.5,0.9 0.5,1.1 L0.5,1.5 C0.5,1.7 0.7,1.8 1,1.8 C1.3,1.8 1.5,1.7 1.5,1.5 L1.5,1.1 C1.5,0.9 1.2,0.8 1,0.8 L1,0.8 Z"></path>
                    </g>
                    <g transform="translate(0.000000, 8.000000)" id="Shape" fill="#CE2D4E">
                        <path d="M26.6,15.8 C26.5,16 26.5,16.3 26.6,16.4 L26.9,16.6 C27,16.7 27.3,16.6 27.4,16.3 C27.5,16.1 27.5,15.8 27.4,15.7 L27.1,15.5 C27,15.4 26.8,15.5 26.6,15.8 L26.6,15.8 Z"></path>
                        <path d="M0.4,0.6 C0.3,0.8 0.3,1.1 0.4,1.2 L0.7,1.4 C0.8,1.5 1.1,1.4 1.2,1.1 C1.3,0.9 1.3,0.6 1.2,0.5 L0.9,0.3 C0.8,0.3 0.5,0.4 0.4,0.6 L0.4,0.6 Z"></path>
                    </g>
                    <g transform="translate(0.000000, 8.000000)" id="Shape" fill="#CE2D4E">
                        <path d="M26.6,1.1 C26.7,1.3 27,1.5 27.1,1.4 L27.4,1.2 C27.5,1.1 27.5,0.9 27.4,0.6 C27.3,0.4 27,0.2 26.9,0.3 L26.6,0.5 C26.5,0.6 26.5,0.9 26.6,1.1 L26.6,1.1 Z"></path>
                        <path d="M0.4,16.3 C0.5,16.5 0.8,16.7 0.9,16.6 L1.2,16.4 C1.3,16.3 1.3,16.1 1.2,15.8 C1.1,15.6 0.8,15.4 0.7,15.5 L0.4,15.7 C0.3,15.8 0.3,16 0.4,16.3 L0.4,16.3 Z"></path>
                    </g>
                </g>
                <g id="Group" transform="translate(1979.000000, 5.000000)">
                    <path d="M18.6,7.6 C17.1,7.6 15,8.4 14,10.7 C12.9,8.4 10.9,7.6 9.4,7.6 C7.1,7.6 4.5,9.3 4.5,13.1 C4.5,15.9 6.1,18.8 9.2,21.7 C11.5,23.8 13.7,25.2 13.8,25.2 C13.9,25.2 14,25.3 14.1,25.3 C14.2,25.3 14.3,25.3 14.4,25.2 C14.5,25.1 16.7,23.8 19,21.7 C22.1,18.8 23.7,15.9 23.7,13.1 C23.5,9.3 20.9,7.6 18.6,7.6 L18.6,7.6 Z" id="coeur_20_" fill="#E768A4"></path>
                    <g transform="translate(13.000000, 0.000000)" id="Shape" fill="#CE2D4E">
                        <path d="M1,31.1 C0.7,31.1 0.5,31.2 0.5,31.4 L0.5,31.8 C0.5,32 0.7,32.1 1,32.1 C1.3,32.1 1.5,32 1.5,31.8 L1.5,31.4 C1.5,31.2 1.2,31.1 1,31.1 L1,31.1 Z"></path>
                        <path d="M1,0.8 C0.7,0.8 0.5,0.9 0.5,1.1 L0.5,1.5 C0.5,1.7 0.7,1.8 1,1.8 C1.3,1.8 1.5,1.7 1.5,1.5 L1.5,1.1 C1.5,0.9 1.2,0.8 1,0.8 L1,0.8 Z"></path>
                    </g>
                    <g transform="translate(0.000000, 8.000000)" id="Shape" fill="#CE2D4E">
                        <path d="M26.6,15.8 C26.5,16 26.5,16.3 26.6,16.4 L26.9,16.6 C27,16.7 27.3,16.6 27.4,16.3 C27.5,16.1 27.5,15.8 27.4,15.7 L27.1,15.5 C27,15.4 26.8,15.5 26.6,15.8 L26.6,15.8 Z"></path>
                        <path d="M0.4,0.6 C0.3,0.8 0.3,1.1 0.4,1.2 L0.7,1.4 C0.8,1.5 1.1,1.4 1.2,1.1 C1.3,0.9 1.3,0.6 1.2,0.5 L0.9,0.3 C0.8,0.3 0.5,0.4 0.4,0.6 L0.4,0.6 Z"></path>
                    </g>
                    <g transform="translate(0.000000, 8.000000)" id="Shape" fill="#CE2D4E">
                        <path d="M26.6,1.1 C26.7,1.3 27,1.5 27.1,1.4 L27.4,1.2 C27.5,1.1 27.5,0.9 27.4,0.6 C27.3,0.4 27,0.2 26.9,0.3 L26.6,0.5 C26.5,0.6 26.5,0.9 26.6,1.1 L26.6,1.1 Z"></path>
                        <path d="M0.4,16.3 C0.5,16.5 0.8,16.7 0.9,16.6 L1.2,16.4 C1.3,16.3 1.3,16.1 1.2,15.8 C1.1,15.6 0.8,15.4 0.7,15.5 L0.4,15.7 C0.3,15.8 0.3,16 0.4,16.3 L0.4,16.3 Z"></path>
                    </g>
                </g>
                <g id="Group" transform="translate(2043.000000, 5.000000)">
                    <path d="M18.3,8.1 C16.9,8.1 14.9,8.9 13.9,11 C12.9,8.9 10.9,8.1 9.5,8.1 C7.3,8.1 4.9,9.7 4.9,13.3 C4.9,15.9 6.4,18.7 9.3,21.4 C11.4,23.4 13.5,24.7 13.6,24.7 C13.7,24.7 13.8,24.8 13.9,24.8 C14,24.8 14.1,24.8 14.2,24.7 C14.3,24.6 16.4,23.4 18.5,21.4 C21.4,18.6 22.9,15.9 22.9,13.3 C23,9.7 20.6,8.1 18.3,8.1 L18.3,8.1 Z" id="coeur_21_" fill="#E768A4"></path>
                    <g transform="translate(13.000000, 0.000000)" id="Shape" fill="#CE2D4E">
                        <path d="M1,31.1 C0.7,31.1 0.5,31.2 0.5,31.4 L0.5,31.8 C0.5,32 0.7,32.1 1,32.1 C1.3,32.1 1.5,32 1.5,31.8 L1.5,31.4 C1.5,31.2 1.2,31.1 1,31.1 L1,31.1 Z"></path>
                        <path d="M1,0.8 C0.7,0.8 0.5,0.9 0.5,1.1 L0.5,1.5 C0.5,1.7 0.7,1.8 1,1.8 C1.3,1.8 1.5,1.7 1.5,1.5 L1.5,1.1 C1.5,0.9 1.2,0.8 1,0.8 L1,0.8 Z"></path>
                    </g>
                    <g transform="translate(0.000000, 8.000000)" id="Shape" fill="#CE2D4E">
                        <path d="M26.6,15.8 C26.5,16 26.5,16.3 26.6,16.4 L26.9,16.6 C27,16.7 27.3,16.6 27.4,16.3 C27.5,16.1 27.5,15.8 27.4,15.7 L27.1,15.5 C27,15.4 26.8,15.5 26.6,15.8 L26.6,15.8 Z"></path>
                        <path d="M0.4,0.6 C0.3,0.8 0.3,1.1 0.4,1.2 L0.7,1.4 C0.8,1.5 1.1,1.4 1.2,1.1 C1.3,0.9 1.3,0.6 1.2,0.5 L0.9,0.3 C0.8,0.3 0.5,0.4 0.4,0.6 L0.4,0.6 Z"></path>
                    </g>
                    <g transform="translate(0.000000, 8.000000)" id="Shape" fill="#CE2D4E">
                        <path d="M26.6,1.1 C26.7,1.3 27,1.5 27.1,1.4 L27.4,1.2 C27.5,1.1 27.5,0.9 27.4,0.6 C27.3,0.4 27,0.2 26.9,0.3 L26.6,0.5 C26.5,0.6 26.5,0.9 26.6,1.1 L26.6,1.1 Z"></path>
                        <path d="M0.4,16.3 C0.5,16.5 0.8,16.7 0.9,16.6 L1.2,16.4 C1.3,16.3 1.3,16.1 1.2,15.8 C1.1,15.6 0.8,15.4 0.7,15.5 L0.4,15.7 C0.3,15.8 0.3,16 0.4,16.3 L0.4,16.3 Z"></path>
                    </g>
                </g>
                <g id="Group" transform="translate(2107.000000, 5.000000)">
                    <path d="M18.1,8.5 C16.8,8.5 14.9,9.2 14,11.2 C13,9.2 11.2,8.5 9.9,8.5 C7.8,8.5 5.5,10 5.5,13.4 C5.5,15.9 6.9,18.5 9.7,21.1 C11.7,23 13.7,24.2 13.8,24.2 C13.9,24.2 14,24.3 14,24.3 C14.1,24.3 14.2,24.3 14.2,24.2 C14.3,24.2 16.3,23 18.3,21.1 C21.1,18.5 22.5,15.9 22.5,13.4 C22.5,10.1 20.2,8.5 18.1,8.5 L18.1,8.5 Z" id="coeur_22_" fill="#E768A4"></path>
                    <g transform="translate(13.000000, 0.000000)" id="Shape" fill="#CE2D4E">
                        <path d="M1,31.1 C0.7,31.1 0.5,31.2 0.5,31.4 L0.5,31.8 C0.5,32 0.7,32.1 1,32.1 C1.3,32.1 1.5,32 1.5,31.8 L1.5,31.4 C1.5,31.2 1.2,31.1 1,31.1 L1,31.1 Z"></path>
                        <path d="M1,0.8 C0.7,0.8 0.5,0.9 0.5,1.1 L0.5,1.5 C0.5,1.7 0.7,1.8 1,1.8 C1.3,1.8 1.5,1.7 1.5,1.5 L1.5,1.1 C1.5,0.9 1.2,0.8 1,0.8 L1,0.8 Z"></path>
                    </g>
                    <g transform="translate(0.000000, 8.000000)" id="Shape" fill="#CE2D4E">
                        <path d="M26.6,15.8 C26.5,16 26.5,16.3 26.6,16.4 L26.9,16.6 C27,16.7 27.3,16.6 27.4,16.3 C27.5,16.1 27.5,15.8 27.4,15.7 L27.1,15.5 C27,15.4 26.8,15.5 26.6,15.8 L26.6,15.8 Z"></path>
                        <path d="M0.4,0.6 C0.3,0.8 0.3,1.1 0.4,1.2 L0.7,1.4 C0.8,1.5 1.1,1.4 1.2,1.1 C1.3,0.9 1.3,0.6 1.2,0.5 L0.9,0.3 C0.8,0.3 0.5,0.4 0.4,0.6 L0.4,0.6 Z"></path>
                    </g>
                    <g transform="translate(0.000000, 8.000000)" id="Shape" fill="#CE2D4E">
                        <path d="M26.6,1.1 C26.7,1.3 27,1.5 27.1,1.4 L27.4,1.2 C27.5,1.1 27.5,0.9 27.4,0.6 C27.3,0.4 27,0.2 26.9,0.3 L26.6,0.5 C26.5,0.6 26.5,0.9 26.6,1.1 L26.6,1.1 Z"></path>
                        <path d="M0.4,16.3 C0.5,16.5 0.8,16.7 0.9,16.6 L1.2,16.4 C1.3,16.3 1.3,16.1 1.2,15.8 C1.1,15.6 0.8,15.4 0.7,15.5 L0.4,15.7 C0.3,15.8 0.3,16 0.4,16.3 L0.4,16.3 Z"></path>
                    </g>
                </g>
                <g id="Group" transform="translate(2171.000000, 5.000000)">
                    <path d="M17.9,9 C16.6,9 14.9,9.7 14,11.6 C13.1,9.7 11.4,9 10.1,9 C8.1,9 6,10.5 6,13.7 C6,16 7.3,18.5 9.9,20.9 C11.8,22.7 13.7,23.8 13.8,23.9 C13.9,23.9 13.9,24 14,24 C14.1,24 14.2,24 14.2,23.9 C14.3,23.9 16.2,22.7 18.1,20.9 C20.7,18.4 22,16 22,13.7 C22,10.5 19.8,9 17.9,9 L17.9,9 Z" id="coeur_23_" fill="#E768A4"></path>
                    <g transform="translate(13.000000, 0.000000)" id="Shape" fill="#CE2D4E">
                        <path d="M1,31.1 C0.7,31.1 0.5,31.2 0.5,31.4 L0.5,31.8 C0.5,32 0.7,32.1 1,32.1 C1.3,32.1 1.5,32 1.5,31.8 L1.5,31.4 C1.5,31.2 1.2,31.1 1,31.1 L1,31.1 Z"></path>
                        <path d="M1,0.8 C0.7,0.8 0.5,0.9 0.5,1.1 L0.5,1.5 C0.5,1.7 0.7,1.8 1,1.8 C1.3,1.8 1.5,1.7 1.5,1.5 L1.5,1.1 C1.5,0.9 1.2,0.8 1,0.8 L1,0.8 Z"></path>
                    </g>
                    <g transform="translate(0.000000, 8.000000)" id="Shape" fill="#CE2D4E">
                        <path d="M26.6,15.8 C26.5,16 26.5,16.3 26.6,16.4 L26.9,16.6 C27,16.7 27.3,16.6 27.4,16.3 C27.5,16.1 27.5,15.8 27.4,15.7 L27.1,15.5 C27,15.4 26.8,15.5 26.6,15.8 L26.6,15.8 Z"></path>
                        <path d="M0.4,0.6 C0.3,0.8 0.3,1.1 0.4,1.2 L0.7,1.4 C0.8,1.5 1.1,1.4 1.2,1.1 C1.3,0.9 1.3,0.6 1.2,0.5 L0.9,0.3 C0.8,0.3 0.5,0.4 0.4,0.6 L0.4,0.6 Z"></path>
                    </g>
                    <g transform="translate(0.000000, 8.000000)" id="Shape" fill="#CE2D4E">
                        <path d="M26.6,1.1 C26.7,1.3 27,1.5 27.1,1.4 L27.4,1.2 C27.5,1.1 27.5,0.9 27.4,0.6 C27.3,0.4 27,0.2 26.9,0.3 L26.6,0.5 C26.5,0.6 26.5,0.9 26.6,1.1 L26.6,1.1 Z"></path>
                        <path d="M0.4,16.3 C0.5,16.5 0.8,16.7 0.9,16.6 L1.2,16.4 C1.3,16.3 1.3,16.1 1.2,15.8 C1.1,15.6 0.8,15.4 0.7,15.5 L0.4,15.7 C0.3,15.8 0.3,16 0.4,16.3 L0.4,16.3 Z"></path>
                    </g>
                </g>
                <g id="Group" transform="translate(2235.000000, 5.000000)">
                    <path d="M17.6,9.5 C16.4,9.5 14.8,10.1 13.9,11.9 C13.1,10.1 11.4,9.5 10.2,9.5 C8.3,9.5 6.4,10.9 6.4,13.9 C6.4,16.1 7.6,18.4 10.1,20.7 C11.9,22.4 13.6,23.4 13.7,23.5 C13.8,23.5 13.8,23.6 13.9,23.6 C14,23.6 14,23.6 14.1,23.5 C14.2,23.5 15.9,22.4 17.7,20.7 C20.1,18.4 21.4,16.1 21.4,13.9 C21.5,10.8 19.5,9.5 17.6,9.5 L17.6,9.5 Z" id="coeur_24_" fill="#E768A4"></path>
                    <g transform="translate(13.000000, 0.000000)" id="Shape" fill="#CE2D4E">
                        <path d="M1,31.1 C0.7,31.1 0.5,31.2 0.5,31.4 L0.5,31.8 C0.5,32 0.7,32.1 1,32.1 C1.3,32.1 1.5,32 1.5,31.8 L1.5,31.4 C1.5,31.2 1.2,31.1 1,31.1 L1,31.1 Z"></path>
                        <path d="M1,0.8 C0.7,0.8 0.5,0.9 0.5,1.1 L0.5,1.5 C0.5,1.7 0.7,1.8 1,1.8 C1.3,1.8 1.5,1.7 1.5,1.5 L1.5,1.1 C1.5,0.9 1.2,0.8 1,0.8 L1,0.8 Z"></path>
                    </g>
                    <g transform="translate(0.000000, 8.000000)" id="Shape" fill="#CE2D4E">
                        <path d="M26.6,15.8 C26.5,16 26.5,16.3 26.6,16.4 L26.9,16.6 C27,16.7 27.3,16.6 27.4,16.3 C27.5,16.1 27.5,15.8 27.4,15.7 L27.1,15.5 C27,15.4 26.8,15.5 26.6,15.8 L26.6,15.8 Z"></path>
                        <path d="M0.4,0.6 C0.3,0.8 0.3,1.1 0.4,1.2 L0.7,1.4 C0.8,1.5 1.1,1.4 1.2,1.1 C1.3,0.9 1.3,0.6 1.2,0.5 L0.9,0.3 C0.8,0.3 0.5,0.4 0.4,0.6 L0.4,0.6 Z"></path>
                    </g>
                    <g transform="translate(0.000000, 8.000000)" id="Shape" fill="#CE2D4E">
                        <path d="M26.6,1.1 C26.7,1.3 27,1.5 27.1,1.4 L27.4,1.2 C27.5,1.1 27.5,0.9 27.4,0.6 C27.3,0.4 27,0.2 26.9,0.3 L26.6,0.5 C26.5,0.6 26.5,0.9 26.6,1.1 L26.6,1.1 Z"></path>
                        <path d="M0.4,16.3 C0.5,16.5 0.8,16.7 0.9,16.6 L1.2,16.4 C1.3,16.3 1.3,16.1 1.2,15.8 C1.1,15.6 0.8,15.4 0.7,15.5 L0.4,15.7 C0.3,15.8 0.3,16 0.4,16.3 L0.4,16.3 Z"></path>
                    </g>
                </g>
                <g id="Group" transform="translate(2299.000000, 5.000000)">
                    <path d="M17.4,9.9 C16.3,9.9 14.8,10.5 14,12.2 C13.2,10.5 11.7,9.9 10.6,9.9 C8.9,9.9 7,11.2 7,14 C7,16.1 8.2,18.2 10.4,20.3 C12.1,21.9 13.7,22.9 13.8,22.9 C13.9,22.9 13.9,23 14,23 C14.1,23 14.1,23 14.2,22.9 C14.3,22.9 15.9,21.9 17.6,20.3 C19.9,18.1 21,16 21,14 C21,11.2 19.1,9.9 17.4,9.9 L17.4,9.9 Z" id="coeur_25_" fill="#E768A4"></path>
                    <g transform="translate(13.000000, 0.000000)" id="Shape" fill="#CE2D4E">
                        <path d="M1,31.1 C0.7,31.1 0.5,31.2 0.5,31.4 L0.5,31.8 C0.5,32 0.7,32.1 1,32.1 C1.3,32.1 1.5,32 1.5,31.8 L1.5,31.4 C1.5,31.2 1.2,31.1 1,31.1 L1,31.1 Z"></path>
                        <path d="M1,0.8 C0.7,0.8 0.5,0.9 0.5,1.1 L0.5,1.5 C0.5,1.7 0.7,1.8 1,1.8 C1.3,1.8 1.5,1.7 1.5,1.5 L1.5,1.1 C1.5,0.9 1.2,0.8 1,0.8 L1,0.8 Z"></path>
                    </g>
                    <g transform="translate(0.000000, 8.000000)" id="Shape" fill="#CE2D4E">
                        <path d="M26.6,15.8 C26.5,16 26.5,16.3 26.6,16.4 L26.9,16.6 C27,16.7 27.3,16.6 27.4,16.3 C27.5,16.1 27.5,15.8 27.4,15.7 L27.1,15.5 C27,15.4 26.8,15.5 26.6,15.8 L26.6,15.8 Z"></path>
                        <path d="M0.4,0.6 C0.3,0.8 0.3,1.1 0.4,1.2 L0.7,1.4 C0.8,1.5 1.1,1.4 1.2,1.1 C1.3,0.9 1.3,0.6 1.2,0.5 L0.9,0.3 C0.8,0.3 0.5,0.4 0.4,0.6 L0.4,0.6 Z"></path>
                    </g>
                    <g transform="translate(0.000000, 8.000000)" id="Shape" fill="#CE2D4E">
                        <path d="M26.6,1.1 C26.7,1.3 27,1.5 27.1,1.4 L27.4,1.2 C27.5,1.1 27.5,0.9 27.4,0.6 C27.3,0.4 27,0.2 26.9,0.3 L26.6,0.5 C26.5,0.6 26.5,0.9 26.6,1.1 L26.6,1.1 Z"></path>
                        <path d="M0.4,16.3 C0.5,16.5 0.8,16.7 0.9,16.6 L1.2,16.4 C1.3,16.3 1.3,16.1 1.2,15.8 C1.1,15.6 0.8,15.4 0.7,15.5 L0.4,15.7 C0.3,15.8 0.3,16 0.4,16.3 L0.4,16.3 Z"></path>
                    </g>
                </g>
                <g id="Group" transform="translate(2363.000000, 5.000000)">
                    <path d="M17.6,9.5 C16.4,9.5 14.8,10.1 13.9,11.9 C13.1,10.1 11.4,9.5 10.2,9.5 C8.3,9.5 6.4,10.9 6.4,13.9 C6.4,16.1 7.6,18.4 10.1,20.7 C11.9,22.4 13.6,23.4 13.7,23.5 C13.8,23.5 13.8,23.6 13.9,23.6 C14,23.6 14,23.6 14.1,23.5 C14.2,23.5 15.9,22.4 17.7,20.7 C20.1,18.4 21.4,16.1 21.4,13.9 C21.5,10.8 19.5,9.5 17.6,9.5 L17.6,9.5 Z" id="coeur_26_" fill="#E768A4"></path>
                    <g transform="translate(13.000000, 0.000000)" id="Shape" fill="#CE2D4E">
                        <path d="M1,31.1 C0.7,31.1 0.5,31.2 0.5,31.4 L0.5,31.8 C0.5,32 0.7,32.1 1,32.1 C1.3,32.1 1.5,32 1.5,31.8 L1.5,31.4 C1.5,31.2 1.2,31.1 1,31.1 L1,31.1 Z"></path>
                        <path d="M1,0.8 C0.7,0.8 0.5,0.9 0.5,1.1 L0.5,1.5 C0.5,1.7 0.7,1.8 1,1.8 C1.3,1.8 1.5,1.7 1.5,1.5 L1.5,1.1 C1.5,0.9 1.2,0.8 1,0.8 L1,0.8 Z"></path>
                    </g>
                    <g transform="translate(0.000000, 8.000000)" id="Shape" fill="#CE2D4E">
                        <path d="M26.6,15.8 C26.5,16 26.5,16.3 26.6,16.4 L26.9,16.6 C27,16.7 27.3,16.6 27.4,16.3 C27.5,16.1 27.5,15.8 27.4,15.7 L27.1,15.5 C27,15.4 26.8,15.5 26.6,15.8 L26.6,15.8 Z"></path>
                        <path d="M0.4,0.6 C0.3,0.8 0.3,1.1 0.4,1.2 L0.7,1.4 C0.8,1.5 1.1,1.4 1.2,1.1 C1.3,0.9 1.3,0.6 1.2,0.5 L0.9,0.3 C0.8,0.3 0.5,0.4 0.4,0.6 L0.4,0.6 Z"></path>
                    </g>
                    <g transform="translate(0.000000, 8.000000)" id="Shape" fill="#CE2D4E">
                        <path d="M26.6,1.1 C26.7,1.3 27,1.5 27.1,1.4 L27.4,1.2 C27.5,1.1 27.5,0.9 27.4,0.6 C27.3,0.4 27,0.2 26.9,0.3 L26.6,0.5 C26.5,0.6 26.5,0.9 26.6,1.1 L26.6,1.1 Z"></path>
                        <path d="M0.4,16.3 C0.5,16.5 0.8,16.7 0.9,16.6 L1.2,16.4 C1.3,16.3 1.3,16.1 1.2,15.8 C1.1,15.6 0.8,15.4 0.7,15.5 L0.4,15.7 C0.3,15.8 0.3,16 0.4,16.3 L0.4,16.3 Z"></path>
                    </g>
                </g>
                <g id="Group" transform="translate(2427.000000, 5.000000)">
                    <path d="M17.9,9 C16.6,9 14.9,9.7 14,11.6 C13.1,9.7 11.4,9 10.1,9 C8.1,9 6,10.5 6,13.7 C6,16 7.3,18.5 9.9,20.9 C11.8,22.7 13.7,23.8 13.8,23.9 C13.9,23.9 13.9,24 14,24 C14.1,24 14.2,24 14.2,23.9 C14.3,23.9 16.2,22.7 18.1,20.9 C20.7,18.4 22,16 22,13.7 C22,10.5 19.8,9 17.9,9 L17.9,9 Z" id="coeur_27_" fill="#E768A4"></path>
                    <g transform="translate(13.000000, 0.000000)" id="Shape" fill="#CE2D4E">
                        <path d="M1,31.1 C0.7,31.1 0.5,31.2 0.5,31.4 L0.5,31.8 C0.5,32 0.7,32.1 1,32.1 C1.3,32.1 1.5,32 1.5,31.8 L1.5,31.4 C1.5,31.2 1.2,31.1 1,31.1 L1,31.1 Z"></path>
                        <path d="M1,0.8 C0.7,0.8 0.5,0.9 0.5,1.1 L0.5,1.5 C0.5,1.7 0.7,1.8 1,1.8 C1.3,1.8 1.5,1.7 1.5,1.5 L1.5,1.1 C1.5,0.9 1.2,0.8 1,0.8 L1,0.8 Z"></path>
                    </g>
                    <g transform="translate(0.000000, 8.000000)" id="Shape" fill="#CE2D4E">
                        <path d="M26.6,15.8 C26.5,16 26.5,16.3 26.6,16.4 L26.9,16.6 C27,16.7 27.3,16.6 27.4,16.3 C27.5,16.1 27.5,15.8 27.4,15.7 L27.1,15.5 C27,15.4 26.8,15.5 26.6,15.8 L26.6,15.8 Z"></path>
                        <path d="M0.4,0.6 C0.3,0.8 0.3,1.1 0.4,1.2 L0.7,1.4 C0.8,1.5 1.1,1.4 1.2,1.1 C1.3,0.9 1.3,0.6 1.2,0.5 L0.9,0.3 C0.8,0.3 0.5,0.4 0.4,0.6 L0.4,0.6 Z"></path>
                    </g>
                    <g transform="translate(0.000000, 8.000000)" id="Shape" fill="#CE2D4E">
                        <path d="M26.6,1.1 C26.7,1.3 27,1.5 27.1,1.4 L27.4,1.2 C27.5,1.1 27.5,0.9 27.4,0.6 C27.3,0.4 27,0.2 26.9,0.3 L26.6,0.5 C26.5,0.6 26.5,0.9 26.6,1.1 L26.6,1.1 Z"></path>
                        <path d="M0.4,16.3 C0.5,16.5 0.8,16.7 0.9,16.6 L1.2,16.4 C1.3,16.3 1.3,16.1 1.2,15.8 C1.1,15.6 0.8,15.4 0.7,15.5 L0.4,15.7 C0.3,15.8 0.3,16 0.4,16.3 L0.4,16.3 Z"></path>
                    </g>
                </g>
                <path d="M2508.9,14 C2507.6,14 2505.9,14.7 2505,16.6 C2504.1,14.7 2502.4,14 2501.1,14 C2499.1,14 2497,15.5 2497,18.7 C2497,21 2498.3,23.5 2500.9,25.9 C2502.8,27.7 2504.7,28.8 2504.8,28.9 C2504.9,28.9 2504.9,29 2505,29 C2505.1,29 2505.2,29 2505.2,28.9 C2505.3,28.9 2507.2,27.7 2509.1,25.9 C2511.7,23.4 2513,21 2513,18.7 C2513,15.5 2510.8,14 2508.9,14 L2508.9,14 Z" id="coeur_28_" fill="#E768A4"></path>
                <path d="M2572.9,14 C2571.6,14 2569.9,14.7 2569,16.6 C2568.1,14.7 2566.4,14 2565.1,14 C2563.1,14 2561,15.5 2561,18.7 C2561,21 2562.3,23.5 2564.9,25.9 C2566.8,27.7 2568.7,28.8 2568.8,28.9 C2568.9,28.9 2568.9,29 2569,29 C2569.1,29 2569.2,29 2569.2,28.9 C2569.3,28.9 2571.2,27.7 2573.1,25.9 C2575.7,23.4 2577,21 2577,18.7 C2577,15.5 2574.9,14 2572.9,14 L2572.9,14 Z" id="coeur_29_" fill="#E768A4"></path>
                <path d="M2636.9,14 C2635.6,14 2633.9,14.7 2633,16.6 C2632.1,14.7 2630.4,14 2629.1,14 C2627.1,14 2625,15.5 2625,18.7 C2625,21 2626.3,23.5 2628.9,25.9 C2630.8,27.7 2632.7,28.8 2632.8,28.9 C2632.9,28.9 2632.9,29 2633,29 C2633.1,29 2633.2,29 2633.2,28.9 C2633.3,28.9 2635.2,27.7 2637.1,25.9 C2639.7,23.4 2641,21 2641,18.7 C2641,15.5 2638.9,14 2636.9,14 L2636.9,14 Z" id="coeur_30_" fill="#E768A4"></path>
                <path d="M2700.9,14 C2699.6,14 2697.9,14.7 2697,16.6 C2696.1,14.7 2694.4,14 2693.1,14 C2691.1,14 2689,15.5 2689,18.7 C2689,21 2690.3,23.5 2692.9,25.9 C2694.8,27.7 2696.7,28.8 2696.8,28.9 C2696.9,28.9 2696.9,29 2697,29 C2697.1,29 2697.2,29 2697.2,28.9 C2697.3,28.9 2699.2,27.7 2701.1,25.9 C2703.7,23.4 2705,21 2705,18.7 C2705,15.5 2702.9,14 2700.9,14 L2700.9,14 Z" id="coeur_31_" fill="#E768A4"></path>
                <path d="M2764.9,14 C2763.6,14 2761.9,14.7 2761,16.6 C2760.1,14.7 2758.4,14 2757.1,14 C2755.1,14 2753,15.5 2753,18.7 C2753,21 2754.3,23.5 2756.9,25.9 C2758.8,27.7 2760.7,28.8 2760.8,28.9 C2760.9,28.9 2760.9,29 2761,29 C2761.1,29 2761.2,29 2761.2,28.9 C2761.3,28.9 2763.2,27.7 2765.1,25.9 C2767.7,23.4 2769,21 2769,18.7 C2769,15.5 2766.9,14 2764.9,14 L2764.9,14 Z" id="coeur_32_" fill="#E768A4"></path>
                <path d="M2828.9,14 C2827.6,14 2825.9,14.7 2825,16.6 C2824.1,14.7 2822.4,14 2821.1,14 C2819.1,14 2817,15.5 2817,18.7 C2817,21 2818.3,23.5 2820.9,25.9 C2822.8,27.7 2824.7,28.8 2824.8,28.9 C2824.9,28.9 2824.9,29 2825,29 C2825.1,29 2825.2,29 2825.2,28.9 C2825.3,28.9 2827.2,27.7 2829.1,25.9 C2831.7,23.4 2833,21 2833,18.7 C2833,15.5 2830.9,14 2828.9,14 L2828.9,14 Z" id="coeur_33_" fill="#E768A4"></path>
                <path d="M2892.9,14 C2891.6,14 2889.9,14.7 2889,16.6 C2888.1,14.7 2886.4,14 2885.1,14 C2883.1,14 2881,15.5 2881,18.7 C2881,21 2882.3,23.5 2884.9,25.9 C2886.8,27.7 2888.7,28.8 2888.8,28.9 C2888.9,28.9 2888.9,29 2889,29 C2889.1,29 2889.2,29 2889.2,28.9 C2889.3,28.9 2891.2,27.7 2893.1,25.9 C2895.7,23.4 2897,21 2897,18.7 C2897,15.5 2894.9,14 2892.9,14 L2892.9,14 Z" id="coeur_34_" fill="#E768A4"></path>
                <path d="M2956.9,14 C2955.6,14 2953.9,14.7 2953,16.6 C2952.1,14.7 2950.4,14 2949.1,14 C2947.1,14 2945,15.5 2945,18.7 C2945,21 2946.3,23.5 2948.9,25.9 C2950.8,27.7 2952.7,28.8 2952.8,28.9 C2952.9,28.9 2952.9,29 2953,29 C2953.1,29 2953.2,29 2953.2,28.9 C2953.3,28.9 2955.2,27.7 2957.1,25.9 C2959.7,23.4 2961,21 2961,18.7 C2961,15.5 2958.9,14 2956.9,14 L2956.9,14 Z" id="coeur_35_" fill="#E768A4"></path>
                <path d="M3020.9,14 C3019.6,14 3017.9,14.7 3017,16.6 C3016.1,14.7 3014.4,14 3013.1,14 C3011.1,14 3009,15.5 3009,18.7 C3009,21 3010.3,23.5 3012.9,25.9 C3014.8,27.7 3016.7,28.8 3016.8,28.9 C3016.9,28.9 3016.9,29 3017,29 C3017.1,29 3017.2,29 3017.2,28.9 C3017.3,28.9 3019.2,27.7 3021.1,25.9 C3023.7,23.4 3025,21 3025,18.7 C3025,15.5 3022.9,14 3020.9,14 L3020.9,14 Z" id="coeur_36_" fill="#E768A4"></path>
                <path d="M3084.9,14 C3083.6,14 3081.9,14.7 3081,16.6 C3080.1,14.7 3078.4,14 3077.1,14 C3075.1,14 3073,15.5 3073,18.7 C3073,21 3074.3,23.5 3076.9,25.9 C3078.8,27.7 3080.7,28.8 3080.8,28.9 C3080.9,28.9 3080.9,29 3081,29 C3081.1,29 3081.2,29 3081.2,28.9 C3081.3,28.9 3083.2,27.7 3085.1,25.9 C3087.7,23.4 3089,21 3089,18.7 C3089,15.5 3086.9,14 3084.9,14 L3084.9,14 Z" id="coeur_37_" fill="#E768A4"></path>
                <path d="M3148.9,14 C3147.6,14 3145.9,14.7 3145,16.6 C3144.1,14.7 3142.4,14 3141.1,14 C3139.1,14 3137,15.5 3137,18.7 C3137,21 3138.3,23.5 3140.9,25.9 C3142.8,27.7 3144.7,28.8 3144.8,28.9 C3144.9,28.9 3144.9,29 3145,29 C3145.1,29 3145.2,29 3145.2,28.9 C3145.3,28.9 3147.2,27.7 3149.1,25.9 C3151.7,23.4 3153,21 3153,18.7 C3153,15.5 3150.9,14 3148.9,14 L3148.9,14 Z" id="coeur_38_" fill="#E768A4"></path>
                <path d="M3212.9,14 C3211.6,14 3209.9,14.7 3209,16.6 C3208.1,14.7 3206.4,14 3205.1,14 C3203.1,14 3201,15.5 3201,18.7 C3201,21 3202.3,23.5 3204.9,25.9 C3206.8,27.7 3208.7,28.8 3208.8,28.9 C3208.9,28.9 3208.9,29 3209,29 C3209.1,29 3209.2,29 3209.2,28.9 C3209.3,28.9 3211.2,27.7 3213.1,25.9 C3215.7,23.4 3217,21 3217,18.7 C3217,15.5 3214.9,14 3212.9,14 L3212.9,14 Z" id="coeur_39_" fill="#E768A4"></path>
                <path d="M3276.9,14 C3275.6,14 3273.9,14.7 3273,16.6 C3272.1,14.7 3270.4,14 3269.1,14 C3267.1,14 3265,15.5 3265,18.7 C3265,21 3266.3,23.5 3268.9,25.9 C3270.8,27.7 3272.7,28.8 3272.8,28.9 C3272.9,28.9 3272.9,29 3273,29 C3273.1,29 3273.2,29 3273.2,28.9 C3273.3,28.9 3275.2,27.7 3277.1,25.9 C3279.7,23.4 3281,21 3281,18.7 C3281,15.5 3278.9,14 3276.9,14 L3276.9,14 Z" id="coeur_40_" fill="#E768A4"></path>
                <path d="M3340.9,14 C3339.6,14 3337.9,14.7 3337,16.6 C3336.1,14.7 3334.4,14 3333.1,14 C3331.1,14 3329,15.5 3329,18.7 C3329,21 3330.3,23.5 3332.9,25.9 C3334.8,27.7 3336.7,28.8 3336.8,28.9 C3336.9,28.9 3336.9,29 3337,29 C3337.1,29 3337.2,29 3337.2,28.9 C3337.3,28.9 3339.2,27.7 3341.1,25.9 C3343.7,23.4 3345,21 3345,18.7 C3345,15.5 3342.9,14 3340.9,14 L3340.9,14 Z" id="coeur_41_" fill="#E768A4"></path>
                <path d="M3404.9,14 C3403.6,14 3401.9,14.7 3401,16.6 C3400.1,14.7 3398.4,14 3397.1,14 C3395.1,14 3393,15.5 3393,18.7 C3393,21 3394.3,23.5 3396.9,25.9 C3398.8,27.7 3400.7,28.8 3400.8,28.9 C3400.9,28.9 3400.9,29 3401,29 C3401.1,29 3401.2,29 3401.2,28.9 C3401.3,28.9 3403.2,27.7 3405.1,25.9 C3407.7,23.4 3409,21 3409,18.7 C3409,15.5 3406.9,14 3404.9,14 L3404.9,14 Z" id="coeur_42_" fill="#E768A4"></path>
                <path d="M3468.9,14 C3467.6,14 3465.9,14.7 3465,16.6 C3464.1,14.7 3462.4,14 3461.1,14 C3459.1,14 3457,15.5 3457,18.7 C3457,21 3458.3,23.5 3460.9,25.9 C3462.8,27.7 3464.7,28.8 3464.8,28.9 C3464.9,28.9 3464.9,29 3465,29 C3465.1,29 3465.2,29 3465.2,28.9 C3465.3,28.9 3467.2,27.7 3469.1,25.9 C3471.7,23.4 3473,21 3473,18.7 C3473,15.5 3470.9,14 3468.9,14 L3468.9,14 Z" id="coeur_43_" fill="#E768A4"></path>
                <path d="M3532.9,14 C3531.6,14 3529.9,14.7 3529,16.6 C3528.1,14.7 3526.4,14 3525.1,14 C3523.1,14 3521,15.5 3521,18.7 C3521,21 3522.3,23.5 3524.9,25.9 C3526.8,27.7 3528.7,28.8 3528.8,28.9 C3528.9,28.9 3528.9,29 3529,29 C3529.1,29 3529.2,29 3529.2,28.9 C3529.3,28.9 3531.2,27.7 3533.1,25.9 C3535.7,23.4 3537,21 3537,18.7 C3537,15.5 3534.9,14 3532.9,14 L3532.9,14 Z" id="coeur_44_" fill="#E768A4"></path>
            </g>
        </g>
        <g id="Artboard-1" sketch:type="MSArtboardGroup"></g>
    </g>
</svg>
