<?xml version="1.0" encoding="UTF-8"?>
<svg width="76px" height="37px" viewBox="0 0 76 37" version="1.1" xmlns="http://www.w3.org/2000/svg" xmlns:xlink="http://www.w3.org/1999/xlink">
    <!-- Generator: Sketch 52.5 (67469) - http://www.bohemiancoding.com/sketch -->
    <title>quotes</title>
    <desc>Created with Sketch.</desc>
    <g id="quotes" stroke="none" stroke-width="1" fill="none" fill-rule="evenodd">
        <path d="M75.0740905,37 L37.7216741,37 C37.6238918,36.1533929 37.5750008,35.2867264 37.5750008,34.4 C37.5750008,25.799957 40.7249693,18.0500345 47.0250008,11.15 C53.3250323,4.2499655 60.4749608,0.8 68.4750008,0.8 C70.2750098,0.8 72.3749888,1.199996 74.7750008,2 C64.9749518,3.800009 58.2750188,9.599951 54.6750008,19.4 L56.1750008,19.4 C61.9750298,19.4 66.5749838,20.999984 69.9750008,24.2 C73.3750178,27.400016 75.0750008,31.599974 75.0750008,36.8 C75.0750008,36.8668005 75.0746973,36.9334672 75.0740905,37 Z M37.6490912,37 L0.296674849,37 C0.198892556,36.1533929 0.150001526,35.2867264 0.150001526,34.4 C0.150001526,25.799957 3.29997003,18.0500345 9.60000153,11.15 C15.900033,4.2499655 23.0499615,0.8 31.0500015,0.8 C32.8500105,0.8 34.9499895,1.199996 37.3500015,2 C27.5499525,3.800009 20.8500195,9.599951 17.2500015,19.4 L18.7500015,19.4 C24.5500305,19.4 29.1499845,20.999984 32.5500015,24.2 C35.9500185,27.400016 37.6500015,31.599974 37.6500015,36.8 C37.6500015,36.8668005 37.6496981,36.9334672 37.6490912,37 Z" id="Combined-Shape" fill="#FAFAFA"></path>
    </g>
</svg>