<svg xmlns="http://www.w3.org/2000/svg" viewBox="0 0 1000 585.411"><g fill="lightgrey" transform="matrix(1.24688 0 0 1.24688 -2445.76 -1273.69)"><path fill="#fff" stroke="#000" stroke-linecap="round" stroke-miterlimit="6" stroke-width="2" d="M50 50c0-13.806-11.194-25-25-25S0 36.194 0 50s11.194 25 25 25 25-11.194 25-25" style="stroke-linecap:round;stroke-miterlimit:6" transform="translate(2250 1350)"/><path fill="none" stroke="#000" stroke-linecap="round" stroke-miterlimit="6" stroke-width="2" d="M25 0v25M25 100V75" style="stroke-linecap:round;stroke-miterlimit:6" transform="translate(2250 1350)"/><path d="M25.842 33.168h-1.684v7.32h-7.26v1.685h7.26v7.32h1.684v-7.32h7.26v-1.685h-7.26v-7.32M17.006 60.394v1.684h16.05v-1.684h-16.05" font-size="15" style="font-size:15px;font-weight:400" transform="translate(2250 1350)"/><text style="font-family:Arial;font-size:16px;font-weight:700;text-anchor:start" transform="translate(2306.25 1400)">
      <tspan dy="-2.4">V1</tspan>
      <tspan x="0" dy="19.2">12 V</tspan>
    </text><path fill="none" stroke="#000" stroke-linecap="round" stroke-width="2" d="M2275 1300h50M2275 1300v50" class="cl_wire" style="stroke-linecap:round"/><path fill="none" stroke="#000" stroke-linecap="round" stroke-miterlimit="6" stroke-width="2" d="M25 20V0" style="stroke-linecap:round;stroke-miterlimit:6" transform="translate(2250 1450)"/><path fill="#fff" stroke="#000" stroke-linecap="round" stroke-linejoin="round" stroke-miterlimit="6" stroke-width="2" d="m5 20 20 20 20-20Z" style="stroke-linecap:round;stroke-linejoin:round;stroke-miterlimit:6" transform="translate(2250 1450)"/><rect width="125" height="175" x="2637.5" y="1312.5" fill="#fff" stroke="#000" stroke-width="2" rx="0" ry="0"/><text x="2700" y="1376" style="font-family:Arial;font-size:16px;font-weight:700" text-anchor="middle">U2</text><text x="2700" y="1400" style="font-family:Arial;font-size:16px;font-weight:700" text-anchor="middle">ESP32-C3</text><path fill="none" stroke="#000" stroke-width="2" d="M2625 1350h12.5"/><text x="2645" y="1354" style="font-family:Arial;font-size:12px">GPIO0</text><path fill="none" stroke="#000" stroke-width="2" d="M2625 1400h12.5"/><text x="2645" y="1404" style="font-family:Arial;font-size:12px">5V</text><path fill="none" stroke="#000" stroke-width="2" d="M2625 1450h12.5"/><text x="2645" y="1454" style="font-family:Arial;font-size:12px">GND</text><path fill="#fff" stroke="#000" stroke-linecap="round" stroke-miterlimit="6" stroke-width="2" d="M6.25 93.75H112.5V6.25H6.25v87.5Z" style="stroke-linecap:round;stroke-miterlimit:6" transform="rotate(180 1212.5 575)"/><path fill="none" stroke="#000" stroke-linecap="round" stroke-miterlimit="6" stroke-width="2" d="M25 64.063c15.625 3.125 15.625 15.625 0 18.75M25 64.063c-15.625-3.125-15.625 6.25 0 3.125M25 17.187c15.625 3.126 15.625 15.625 0 18.75" style="stroke-linecap:round;stroke-miterlimit:6" transform="rotate(180 1212.5 575)"/><path fill="none" stroke="#000" stroke-linecap="round" stroke-miterlimit="6" stroke-width="2" d="M25 32.813c15.625 3.124 15.625 15.625 0 18.75" style="stroke-linecap:round;stroke-miterlimit:6" transform="rotate(180 1212.5 575)"/><path fill="none" stroke="#000" stroke-linecap="round" stroke-miterlimit="6" stroke-width="2" d="M25 48.438c15.625 3.125 15.625 15.625 0 18.75M25 32.813c-15.625-3.126-15.625 6.25 0 3.124M25 48.438c-15.625-3.126-15.625 6.25 0 3.125M25 100V82.813M25 0v17.187" style="stroke-linecap:round;stroke-miterlimit:6" transform="rotate(180 1212.5 575)"/><path fill="none" stroke="#000" stroke-linecap="round" stroke-miterlimit="6" stroke-width="3" d="M76.562 22.656 100 81.25" style="stroke-linecap:round;stroke-miterlimit:6" transform="rotate(180 1212.5 575)"/><path fill="none" stroke="#000" stroke-linecap="round" stroke-miterlimit="6" d="M104.215 52.358A44.533 44.533 0 0 1 75 63.281" style="stroke-linecap:round;stroke-miterlimit:6" transform="rotate(180 1212.5 575)"/><path fill="none" stroke="#000" stroke-linecap="round" stroke-miterlimit="6" stroke-width="2" d="M75 23.438a4.687 4.687 0 1 0 0-9.375 4.687 4.687 0 0 0 0 9.375M75 14.062V6.25" style="stroke-linecap:round;stroke-miterlimit:6" transform="rotate(180 1212.5 575)"/><path d="M2346.25 1083.75c4.687 2.344 6.094 2.344 13.125 3.75-7.031 1.406-8.438 1.406-13.125 3.75.937-2.813.937-4.688 0-7.5"/><path fill="none" stroke="#000" stroke-linecap="round" stroke-miterlimit="6" stroke-width="2" d="M75 76.563a4.687 4.687 0 1 1 .001 9.373A4.687 4.687 0 0 1 75 76.563M75 85.938v7.812M75 0v6.25M75 100v-6.25" style="stroke-linecap:round;stroke-miterlimit:6" transform="rotate(180 1212.5 575)"/><path fill="none" stroke="#000" stroke-linecap="round" stroke-miterlimit="6" d="M49.5 50h-9M64.5 50h-9M79.5 50h-9" style="stroke-linecap:round;stroke-miterlimit:6" transform="rotate(180 1212.5 575)"/><text style="font-family:Arial;font-size:16px;font-weight:700;text-anchor:start" transform="translate(2431.25 1100)">
      <tspan dy="7.2">RLY1</tspan>
    </text><rect width="125" height="175" x="1962.5" y="1112.5" fill="#fff" stroke="#000" stroke-width="2" rx="0" ry="0"/><text x="2025" y="1176" style="font-family:Arial;font-size:16px;font-weight:700" text-anchor="middle">U3</text><text x="2025" y="1200" style="font-family:Arial;font-size:16px;font-weight:700" text-anchor="middle">LEDs</text><path fill="none" stroke="#000" stroke-width="2" d="M2100 1150h-12.5"/><text x="2080" y="1154" style="font-family:Arial;font-size:12px" text-anchor="end">VCC</text><path fill="none" stroke="#000" stroke-width="2" d="M2100 1200h-12.5"/><text x="2080" y="1204" style="font-family:Arial;font-size:12px" text-anchor="end">GND</text><path fill="none" stroke="#000" stroke-linecap="round" stroke-width="2" d="M2100 1200h50M2150 1200v250" class="cl_wire" style="stroke-linecap:round"/><path fill="#fff" stroke="#000" stroke-linecap="round" stroke-miterlimit="6" stroke-width="2" d="M12.5 62.5h75V0h-75v62.5Z" style="stroke-linecap:round;stroke-miterlimit:6" transform="translate(2325 1275)"/><path fill="none" stroke="#000" stroke-linecap="round" stroke-miterlimit="6" stroke-width="2" d="M0 25h12.5M100 25H87.5M50 75V62.5" style="stroke-linecap:round;stroke-miterlimit:6" transform="translate(2325 1275)"/><path d="M2343.008 1304.977h-1.784l1.838-10.015h1.791l-1.845 10.015M2352.277 1305.113h-.69l-3.692-6.473-1.107 6.337h-1.764l1.84-10.015h.82l3.616 6.207 1.087-6.207h1.756l-1.866 10.151M2381.435 1301.251c0-1.782.486-3.304 1.457-4.566.975-1.267 2.242-1.9 3.8-1.9 1.199 0 2.122.318 2.769.956.647.634.97 1.552.97 2.755 0 1.973-.496 3.575-1.49 4.806-.993 1.23-2.354 1.846-4.08 1.846-1.058 0-1.894-.356-2.51-1.067-.61-.715-.916-1.659-.916-2.83m1.846-.185c0 .77.153 1.384.458 1.84.305.455.752.683 1.34.683 1.085 0 1.941-.488 2.57-1.463.63-.975.944-2.14.944-3.493 0-1.531-.675-2.297-2.024-2.297-.948 0-1.734.501-2.358 1.504a6.029 6.029 0 0 0-.93 3.226M2398.922 1301.894c-.192 1.03-.67 1.83-1.436 2.399-.765.57-1.713.855-2.844.855-.943 0-1.713-.226-2.31-.677-.593-.456-.889-1.083-.889-1.88 0-.242.025-.5.075-.773l1.258-6.856h1.832l-1.278 6.822a2.137 2.137 0 0 0-.034.39c0 .451.139.8.417 1.046.278.246.656.369 1.135.369.61 0 1.118-.166 1.524-.5.406-.332.663-.799.772-1.4l1.251-6.727h1.805l-1.278 6.932M2409.38 1296.52h-3.157l-1.545 8.457h-1.798l1.545-8.456h-3.186l.287-1.559h8.149l-.294 1.559M2369.2 1333.216c-1.03.72-2.29 1.08-3.78 1.08-1.149 0-2.083-.367-2.803-1.1-.716-.739-1.074-1.673-1.074-2.803 0-1.983.545-3.553 1.634-4.71 1.094-1.162 2.582-1.743 4.464-1.743 1.02 0 1.78.227 2.276.683l-.533 1.484c-.67-.406-1.337-.609-2.003-.609-1.203 0-2.169.442-2.898 1.326-.73.88-1.094 1.983-1.094 3.309 0 .82.226 1.46.677 1.92.451.457 1.069.684 1.852.684.652 0 1.222-.18 1.71-.54l.362-1.982h-1.388l.273-1.49h3.152l-.827 4.491M2378.039 1334.262h-.69l-3.692-6.474-1.108 6.337h-1.763l1.839-10.014h.82l3.616 6.207 1.087-6.207h1.757l-1.866 10.15M2382.386 1334.125h-2.42l1.826-9.994c.665-.118 1.29-.178 1.873-.178 1.526 0 2.707.349 3.54 1.046.835.697 1.252 1.707 1.252 3.028 0 1.855-.552 3.336-1.655 4.444-1.103 1.103-2.575 1.654-4.416 1.654m.889-8.552-1.217 6.96c.2.018.383.027.547.027 1.221 0 2.192-.43 2.912-1.292.72-.862 1.08-1.967 1.08-3.316 0-.738-.248-1.33-.745-1.777-.497-.447-1.135-.67-1.914-.67-.219 0-.44.023-.663.068"/><text style="font-family:Arial;font-size:16px;font-weight:700;text-anchor:middle" text-anchor="middle" transform="translate(2375 1250.8)">
      <tspan dy="-2.4">U1</tspan>
      <tspan x="0" dy="19.2">7805</tspan>
    </text><path fill="none" stroke="#000" stroke-linecap="round" stroke-width="2" d="M2150 1450h475M2375 1350v100M2475 1400h150M2475 1300v100M2425 1300h50M2150 1025h200M2150 1025v125M2350 1150v75M2275 1225h75M2275 1225v75M2350 1025v25M2100 1150h50M2400 1150v75M2400 1225h75M2475 1225v75" class="cl_wire" style="stroke-linecap:round"/><path fill="none" stroke="#000" stroke-linecap="round" stroke-miterlimit="6" stroke-width="2" d="M0 50h12.5M12.5 87.5v-75M12.5 32.812 50 12.5M50 0v12.5M12.5 67.188 50 87.5M50 100V87.5" style="stroke-linecap:round;stroke-miterlimit:6" transform="translate(2600 1050)"/><path d="M2627.931 1131.975c8.719.523 10.748 1.696 22.069 5.525-8.977-7.89-11.006-9.06-15.819-16.35-.991 4.84-2.554 7.548-6.25 10.825"/><text style="font-family:Arial;font-size:16px;font-weight:700;text-anchor:start" transform="translate(2650 1100)">
      <tspan dy="-2.4">Q1</tspan>
      <tspan x="0" dy="19.2">2N2222</tspan>
    </text><path fill="none" stroke="#000" stroke-linecap="round" stroke-width="2" d="M2400 1025v25M2400 1025h250M2650 1025v25" class="cl_wire" style="stroke-linecap:round"/><path fill="none" stroke="#000" stroke-linecap="round" stroke-miterlimit="6" stroke-width="2" d="M25 20V0" style="stroke-linecap:round;stroke-miterlimit:6" transform="translate(2625 1150)"/><path fill="#fff" stroke="#000" stroke-linecap="round" stroke-linejoin="round" stroke-miterlimit="6" stroke-width="2" d="m5 20 20 20 20-20Z" style="stroke-linecap:round;stroke-linejoin:round;stroke-miterlimit:6" transform="translate(2625 1150)"/><text style="font-family:Arial;font-size:16px;font-weight:700;text-anchor:start" transform="translate(2593.75 1250)">
      <tspan dy="-2.4">R1</tspan>
      <tspan x="0" dy="19.2">1 kΩ</tspan>
    </text><path fill="none" stroke="#000" stroke-linecap="round" stroke-miterlimit="6" stroke-width="2" d="M25 20.5V0M25 79.5V100" style="stroke-linecap:round;stroke-miterlimit:6" transform="translate(2550 1200)"/><rect width="18" height="58" x="16" y="21" fill="#fff" stroke="#000" stroke-width="2" rx="0" ry="0" transform="translate(2550 1200)"/><path fill="none" stroke="#000" stroke-linecap="round" stroke-width="2" d="M2575 1100v100M2575 1100h25M2575 1300v50M2575 1350h50" class="cl_wire" style="stroke-linecap:round"/><path d="m2510.937 1125 14.063 25 14.063-25"/><path fill="none" stroke="#000" stroke-linecap="round" stroke-miterlimit="6" stroke-width="2" d="M25 25V0M25 50v25M10.937 50h28.126" style="stroke-linecap:round;stroke-miterlimit:6" transform="translate(2500 1100)"/><text style="font-family:Arial;font-size:16px;font-weight:700;text-anchor:end" text-anchor="end" transform="translate(2506.25 1137.5)">
      <tspan dy="7.2">1N4148</tspan>
    </text><path fill="none" stroke="#000" stroke-linecap="round" stroke-width="2" d="M2525 1025v75M2525 1175v50M2475 1225h50" class="cl_wire" style="stroke-linecap:round"/><circle cx="2275" cy="1450" r="3" stroke="#000"/><circle cx="2275" cy="1300" r="3" stroke="#000"/><circle cx="2375" cy="1450" r="3" stroke="#000"/><circle cx="2475" cy="1300" r="3" stroke="#000"/><circle cx="2475" cy="1225" r="3" stroke="#000"/><circle cx="2525" cy="1025" r="3" stroke="#000"/></g></svg>
