<?xml version="1.0" encoding="UTF-8" standalone="no"?>
<svg width="841px" height="641px" viewBox="0 0 841 641" version="1.1" xmlns="http://www.w3.org/2000/svg" xmlns:xlink="http://www.w3.org/1999/xlink" xmlns:sketch="http://www.bohemiancoding.com/sketch/ns">
    <!-- Generator: Sketch 3.1 (8751) - http://www.bohemiancoding.com/sketch -->
    <title>Untitled 5</title>
    <desc>Created with Sketch.</desc>
    <defs></defs>
    <g id="Page-1" stroke="none" stroke-width="1" fill="none" fill-rule="evenodd" sketch:type="MSPage">
        <path d="M265.2,212 L193.8,261 L191.8,262.5" id="Shape" stroke="#E22400" stroke-width="5" sketch:type="MSShapeGroup"></path>
        <path d="M188,272.6 L177,252.6 L199.6,255.7 L188,272.6 Z" id="Shape" fill="#E22400" sketch:type="MSShapeGroup" transform="translate(188.300000, 262.600000) scale(1, -1) translate(-188.300000, -262.600000) "></path>
        <path d="M265.2,456 L193.8,505 L191.8,506.5" id="Shape" stroke="#E22400" stroke-width="5" sketch:type="MSShapeGroup"></path>
        <path d="M188,516.6 L177,496.6 L199.6,499.7 L188,516.6 Z" id="Shape" fill="#E22400" sketch:type="MSShapeGroup" transform="translate(188.300000, 506.600000) scale(1, -1) translate(-188.300000, -506.600000) "></path>
        <path d="M146.025,145.025 C176.725,114.425 176.725,64.625 146.025,34.025 C115.425,3.325 65.625,3.325 35.025,34.025 C4.325,64.625 4.325,114.425 35.025,145.025 C65.625,175.725 115.425,175.725 146.025,145.025" id="Shape" fill="#E22400" sketch:type="MSShapeGroup" transform="translate(90.525000, 89.525000) scale(1, -1) translate(-90.525000, -89.525000) "></path>
        <path d="M146,34 C176.7,64.6 176.7,114.4 146,145 C115.4,175.7 65.6,175.7 35,145 C4.3,114.4 4.3,64.6 35,34 C65.6,3.3 115.4,3.3 146,34" id="Shape" stroke="#E22400" stroke-width="2" sketch:type="MSShapeGroup"></path>
        <path d="M146.025,365.025 C176.725,334.425 176.725,284.625 146.025,254.025 C115.425,223.325 65.625,223.325 35.025,254.025 C4.325,284.625 4.325,334.425 35.025,365.025 C65.625,395.725 115.425,395.725 146.025,365.025" id="Shape" fill="#000000" sketch:type="MSShapeGroup" transform="translate(90.525000, 309.525000) scale(1, -1) translate(-90.525000, -309.525000) "></path>
        <path d="M146,254 C176.7,284.6 176.7,334.4 146,365 C115.4,395.7 65.6,395.7 35,365 C4.3,334.4 4.3,284.6 35,254 C65.6,223.3 115.4,223.3 146,254" id="Shape" stroke="#000000" stroke-width="2" sketch:type="MSShapeGroup"></path>
        <path d="M146.025,605.025 C176.725,574.425 176.725,524.625 146.025,494.025 C115.425,463.325 65.625,463.325 35.025,494.025 C4.325,524.625 4.325,574.425 35.025,605.025 C65.625,635.725 115.425,635.725 146.025,605.025" id="Shape" fill="#000000" sketch:type="MSShapeGroup" transform="translate(90.525000, 549.525000) scale(1, -1) translate(-90.525000, -549.525000) "></path>
        <path d="M146,494 C176.7,524.6 176.7,574.4 146,605 C115.4,635.7 65.6,635.7 35,605 C4.3,574.4 4.3,524.6 35,494 C65.6,463.3 115.4,463.3 146,494" id="Shape" stroke="#000000" stroke-width="2" sketch:type="MSShapeGroup"></path>
        <path d="M258,129 L258,258 C258,266.3 264.7,273 273,273 L402,273 C410.3,273 417,266.3 417,258 L417,129 C417,120.7 410.3,114 402,114 L273,114 C264.7,114 258,120.7 258,129 L258,129 Z" id="Shape" fill="#5F5F5F" sketch:type="MSShapeGroup" transform="translate(337.500000, 193.500000) scale(1, -1) translate(-337.500000, -193.500000) "></path>
        <path d="M258,381 L258,510 C258,518.3 264.7,525 273,525 L402,525 C410.3,525 417,518.3 417,510 L417,381 C417,372.7 410.3,366 402,366 L273,366 C264.7,366 258,372.7 258,381 L258,381 Z" id="Shape" fill="#5F5F5F" sketch:type="MSShapeGroup" transform="translate(337.500000, 445.500000) scale(1, -1) translate(-337.500000, -445.500000) "></path>
        <path d="M232.6,150.9 L230.4,149.8 L162.9,117.8" id="Shape" stroke="#E22400" stroke-width="5" sketch:type="MSShapeGroup"></path>
        <path d="M226,140.7 L248.8,141.2 L234.8,159.1 L226,140.7 Z" id="Shape" fill="#E22400" sketch:type="MSShapeGroup" transform="translate(237.400000, 149.900000) scale(1, -1) translate(-237.400000, -149.900000) "></path>
        <path d="M434,194 C434,194 630.3,319 452.5,429.5 L450.3,430.8" id="Shape" stroke="#E22400" stroke-width="5" sketch:type="MSShapeGroup"></path>
        <path d="M447.4,439.8 L434.8,420.7 L457.6,422.2 L447.4,439.8 Z" id="Shape" fill="#E22400" sketch:type="MSShapeGroup" transform="translate(446.200000, 430.250000) scale(1, -1) translate(-446.200000, -430.250000) "></path>
        <path d="M564.2,310 L697.2,177 L830.2,310 L697.2,443 L564.2,310 Z" id="Shape" fill="#76BA40" sketch:type="MSShapeGroup" transform="translate(697.200000, 310.000000) scale(1, -1) translate(-697.200000, -310.000000) "></path>
        <text id="Client" sketch:type="MSTextLayer" font-family="Open Sans" font-size="36" font-weight="normal" fill="#FFFFFF">
            <tspan x="43" y="103">Client</tspan>
        </text>
        <text id="Server-A" sketch:type="MSTextLayer" font-family="Open Sans" font-size="32" font-weight="normal" fill="#FFFFFF">
            <tspan x="275" y="206">Server A</tspan>
        </text>
        <text id="Server-B" sketch:type="MSTextLayer" font-family="Open Sans" font-size="32" font-weight="normal" fill="#FFFFFF">
            <tspan x="275" y="458">Server B</tspan>
        </text>
        <text id="Client-2" sketch:type="MSTextLayer" font-family="Open Sans" font-size="36" font-weight="normal" fill="#FFFFFF">
            <tspan x="43" y="323">Client</tspan>
        </text>
        <text id="Client-3" sketch:type="MSTextLayer" font-family="Open Sans" font-size="36" font-weight="normal" fill="#FFFFFF">
            <tspan x="43" y="563">Client</tspan>
        </text>
        <text id="Redis" sketch:type="MSTextLayer" font-family="Open Sans" font-size="36" font-weight="normal" fill="#FFFFFF">
            <tspan x="652" y="322">Redis</tspan>
        </text>
    </g>
</svg>